<?xml version="1.0"?>
<svg xmlns="http://www.w3.org/2000/svg" enable-background="new 0 0 57 60.025" height="512px" viewBox="0 0 57 60.025" width="512px" class=""><g><path d="m50.106 35h-48.212c-.552 0-1-.447-1-1s.448-1 1-1h48.212c.552 0 1 .447 1 1s-.448 1-1 1z" data-original="#000000" class="active-path" data-old_color="#000000" fill="#FFFFFF"/><path d="m26 59.992c-.186 0-.371-.052-.534-.154-1.721-1.086-3.311-2.394-5.156-4.239-5.87-5.869-9.103-13.54-9.103-21.599s3.233-15.729 9.104-21.599c1.848-1.848 3.438-3.155 5.156-4.239.308-.195.697-.207 1.017-.03.318.176.516.512.516.876v49.984c0 .364-.198.7-.517.876-.151.083-.317.124-.483.124zm-4.276-46.177c-5.492 5.492-8.517 12.66-8.518 20.185 0 7.524 3.025 14.692 8.518 20.185 1.17 1.17 2.225 2.106 3.276 2.9v-46.17c-1.049.793-2.104 1.73-3.276 2.9z" data-original="#000000" class="active-path" data-old_color="#000000" fill="#FFFFFF"/><path d="m30 10c-.552 0-1-.447-1-1v-8c0-.553.448-1 1-1s1 .447 1 1v8c0 .553-.448 1-1 1z" data-original="#000000" class="active-path" data-old_color="#000000" fill="#FFFFFF"/><path d="m43 16.677c-.248 0-.492-.092-.68-.268-4.453-4.133-10.249-6.409-16.32-6.409-2.615 0-5.199.425-7.68 1.263-.305.103-.642.053-.903-.135-.262-.188-.417-.49-.417-.813v-4.315c0-.403.243-.768.615-.923l12-5c.237-.1.503-.102.743-.011l13 5c.387.149.642.52.642.934v9.677c0 .397-.236.758-.6.917-.129.055-.265.083-.4.083zm-17-8.677c5.838 0 11.441 1.942 16 5.511v-6.824l-11.985-4.61-11.015 4.59v2.294c2.279-.639 4.628-.961 7-.961z" data-original="#000000" class="active-path" data-old_color="#000000" fill="#FFFFFF"/><path d="m7 26c-.267 0-.523-.106-.711-.297-.644-.65-6.289-6.468-6.289-10.303 0-4.081 3.14-7.4 7-7.4s7 3.319 7 7.4c0 3.835-5.645 9.652-6.289 10.303-.188.191-.444.297-.711.297zm0-16c-2.757 0-5 2.423-5 5.4 0 2.043 2.823 5.789 4.999 8.148 1.854-2.019 5.001-5.912 5.001-8.148 0-2.977-2.243-5.4-5-5.4z" data-original="#000000" class="active-path" data-old_color="#000000" fill="#FFFFFF"/><path d="m40 60c-.267 0-.523-.106-.711-.297-.643-.65-6.289-6.468-6.289-10.303 0-4.081 3.14-7.4 7-7.4s7 3.319 7 7.4c0 3.835-5.646 9.652-6.289 10.303-.188.191-.444.297-.711.297zm0-16c-2.757 0-5 2.423-5 5.4 0 2.043 2.824 5.789 4.999 8.148 1.854-2.019 5.001-5.912 5.001-8.148 0-2.977-2.243-5.4-5-5.4z" data-original="#000000" class="active-path" data-old_color="#000000" fill="#FFFFFF"/><path d="m26 21.207c-5.111 0-10.091-.477-14.402-1.378-.313-.065-.576-.276-.708-.568-.131-.292-.115-.629.044-.906.881-1.541 1.066-2.457 1.066-2.955 0-.727-.132-1.434-.394-2.101-.174-.444-.01-.949.392-1.206 10.195-6.53 23.817-5.049 32.386 3.521.435.436.844.885 1.242 1.343.219.252.297.596.21.918-.087.321-.329.579-.645.686-5.046 1.707-11.863 2.646-19.191 2.646zm-12.699-3.082c3.87.709 8.229 1.082 12.699 1.082 6.315 0 12.427-.751 17.069-2.079-.033-.033-.065-.065-.099-.099-7.728-7.729-19.905-9.211-29.237-3.657.177.657.267 1.337.267 2.028 0 .794-.23 1.693-.699 2.725z" data-original="#000000" class="active-path" data-old_color="#000000" fill="#FFFFFF"/><path d="m26 59.992c-.166 0-.332-.041-.483-.124-.319-.176-.517-.512-.517-.876v-49.984c0-.364.198-.7.517-.876s.708-.165 1.017.03c1.721 1.087 3.311 2.395 5.156 4.239 5.871 5.87 9.104 13.54 9.104 21.599 0 3.236-.542 6.468-1.609 9.604-.102.298-.337.53-.636.628-2.09.684-3.549 2.809-3.549 5.168 0 .33.084.742.25 1.223.105.305.057.643-.13.905-1.042 1.466-2.195 2.835-3.431 4.07-1.844 1.845-3.434 3.152-5.156 4.239-.162.103-.347.155-.533.155zm1-49.076v46.169c1.051-.794 2.106-1.73 3.275-2.9 1.044-1.044 2.027-2.191 2.927-3.416-.136-.497-.202-.948-.202-1.369 0-3.08 1.763-5.784 4.439-6.889.898-2.787 1.354-5.648 1.354-8.512 0-7.524-3.025-14.692-8.518-20.185-1.169-1.168-2.224-2.105-3.275-2.898z" data-original="#000000" class="active-path" data-old_color="#000000" fill="#FFFFFF"/><path d="m25.977 60.025c-6.723 0-13.346-2.624-18.362-7.641-.435-.434-.844-.885-1.242-1.341-.219-.252-.299-.596-.211-.918s.329-.58.645-.687c5.047-1.706 11.863-2.645 19.193-2.645 2.792 0 5.556.141 8.212.419.276.028.527.171.694.393.167.221.235.502.187.775-.063.353-.093.687-.093 1.02 0 1.326 1.173 3.516 3.302 6.163.188.233.261.539.199.833-.062.293-.251.543-.518.682-3.814 1.983-7.929 2.947-12.006 2.947zm-17.045-9.153c.032.033.065.065.097.099 7.153 7.152 17.843 9.038 26.949 4.862-1.977-2.639-2.978-4.799-2.978-6.433 0-.099.002-.197.006-.297-2.279-.206-4.631-.311-7.006-.311-6.316.001-12.427.752-17.068 2.08z" data-original="#000000" class="active-path" data-old_color="#000000" fill="#FFFFFF"/><path d="m26 60c-14.336 0-26-11.663-26-26 0-4.449 1.149-8.846 3.323-12.716.164-.291.463-.481.796-.507.334-.026.658.118.864.382.756.967 1.5 1.814 2.02 2.385 1.856-2.022 4.997-5.91 4.997-8.144 0-.726-.132-1.432-.393-2.098-.174-.444-.01-.949.392-1.206 4.185-2.68 9.026-4.096 14.001-4.096 14.336 0 26 11.663 26 26 0 5.688-1.805 11.091-5.219 15.625-.253.335-.688.478-1.09.355s-.685-.483-.708-.902c-.155-2.848-2.344-5.078-4.983-5.078-2.757 0-5 2.423-5 5.4 0 1.324 1.171 3.513 3.299 6.16.188.233.261.538.199.832-.062.293-.251.543-.517.681-3.732 1.943-7.763 2.927-11.981 2.927zm-21.621-36.415c-1.56 3.236-2.379 6.807-2.379 10.415 0 13.233 10.766 24 24 24 3.489 0 6.839-.729 9.976-2.171-1.976-2.638-2.976-4.797-2.976-6.429 0-4.081 3.14-7.4 7-7.4 2.894 0 5.4 1.872 6.457 4.557 2.325-3.769 3.543-8.067 3.543-12.557 0-13.233-10.767-24-24-24-4.334 0-8.558 1.165-12.266 3.375.177.656.266 1.335.266 2.025 0 3.835-5.645 9.652-6.289 10.303-.188.191-.444.297-.711.297 0 0 0 0-.001 0-.267 0-.523-.107-.711-.298-.045-.045-.87-.885-1.909-2.117z" data-original="#000000" class="active-path" data-old_color="#000000" fill="#FFFFFF"/><path d="m45.978 50.626c-.199 0-.397-.06-.566-.176-.291-.2-.455-.538-.432-.89.001-.021.014-.138.017-.158.003-.09-.003-.177-.009-.263-.015-.238.05-.561.193-.751 3.152-4.194 4.819-9.169 4.819-14.388 0-6.648-2.799-13.06-7.68-17.59-.204-.189-.32-.455-.32-.733v-9.677c0-.414.255-.785.641-.934l13-5c.308-.116.653-.077.925.109.272.187.434.496.434.825v44c0 .39-.227.744-.581.908l-10.022 4.626c-.133.062-.276.092-.419.092zm-1.978-35.38c5.09 4.888 8 11.697 8 18.754 0 4.81-1.306 9.429-3.797 13.498l6.797-3.138v-41.904l-11 4.23z" data-original="#000000" class="active-path" data-old_color="#000000" fill="#FFFFFF"/><path d="m40.997 52h-1.993c-1.105 0-2.004-.898-2.004-2.003v-1.994c0-1.105.899-2.003 2.003-2.003h1.993c1.105 0 2.004.898 2.004 2.003v1.994c0 1.105-.899 2.003-2.003 2.003zm-1.994-4-.003 1.997 1.999.003.001-1.997z" data-original="#000000" class="active-path" data-old_color="#000000" fill="#FFFFFF"/><path d="m7.997 18h-1.994c-1.104 0-2.003-.898-2.003-2.003v-1.994c0-1.105.899-2.003 2.003-2.003h1.994c1.104 0 2.003.898 2.003 2.003v1.994c0 1.105-.899 2.003-2.003 2.003zm-1.994-4-.003 1.997 1.999.003.001-1.997z" data-original="#000000" class="active-path" data-old_color="#000000" fill="#FFFFFF"/></g> </svg>
