<?xml version="1.0"?>
<svg xmlns="http://www.w3.org/2000/svg" xmlns:xlink="http://www.w3.org/1999/xlink" version="1.1" id="Layer_1" x="0px" y="0px" viewBox="0 0 512 512" style="enable-background:new 0 0 512 512;" xml:space="preserve" width="512px" height="512px"><g><g>
	<g>
		<path d="M341.516,169.489l-7.078-4.087c-0.49-0.284-0.774-0.828-0.704-1.356c0.442-3.376,0.666-6.821,0.666-10.238    c0-3.409-0.226-6.853-0.672-10.234c-0.069-0.526,0.214-1.071,0.705-1.355l7.084-4.09c8.402-4.852,11.291-15.634,6.44-24.035    l-11.584-20.064c-2.35-4.07-6.144-6.983-10.684-8.197c-4.54-1.217-9.281-0.593-13.351,1.758l-7.087,4.092    c-0.49,0.282-1.106,0.257-1.526-0.068c-5.451-4.191-11.421-7.643-17.745-10.263c-0.477-0.199-0.8-0.713-0.8-1.281v-8.162    c0-9.702-7.892-17.594-17.594-17.594h-23.168c-9.702,0-17.594,7.892-17.594,17.594v8.161c0,0.567-0.322,1.082-0.801,1.281    c-6.327,2.621-12.299,6.074-17.75,10.262c-0.421,0.326-1.035,0.351-1.525,0.068l-7.083-4.09c-4.07-2.35-8.812-2.976-13.351-1.758    c-4.54,1.216-8.334,4.127-10.684,8.197l-11.584,20.064c-2.35,4.069-2.974,8.812-1.758,13.352    c1.217,4.539,4.127,8.332,8.197,10.683l7.079,4.087c0.49,0.283,0.774,0.828,0.704,1.355c-0.442,3.378-0.666,6.822-0.666,10.238    c0,3.412,0.226,6.854,0.672,10.234c0.069,0.528-0.213,1.074-0.704,1.357l-7.084,4.091c-8.402,4.852-11.291,15.633-6.44,24.034    l11.584,20.065c4.851,8.401,15.628,11.292,24.036,6.44l7.086-4.093c0.488-0.284,1.103-0.257,1.527,0.068    c5.451,4.19,11.42,7.642,17.744,10.263c0.478,0.199,0.8,0.713,0.8,1.281v8.161c0,9.702,7.892,17.594,17.594,17.594h23.168    c9.702,0,17.594-7.892,17.594-17.594v-8.163c0-0.567,0.321-1.081,0.801-1.279c6.326-2.621,12.298-6.073,17.75-10.26    c0.421-0.324,1.036-0.349,1.525-0.068l7.083,4.09c8.4,4.852,19.183,1.962,24.035-6.44l11.584-20.065    C352.807,185.122,349.918,174.341,341.516,169.489z M333.954,185.441l-11.584,20.065c-0.392,0.68-1.264,0.918-1.949,0.522    l-7.083-4.09c-6.184-3.571-13.825-3.082-19.461,1.248c-4.328,3.324-9.066,6.064-14.084,8.142    c-6.55,2.712-10.783,9.078-10.783,16.218v8.163c0,0.786-0.64,1.426-1.426,1.426h-23.168c-0.786,0-1.426-0.64-1.426-1.426v-8.161    c0-7.138-4.232-13.504-10.779-16.217c-5.015-2.079-9.753-4.819-14.081-8.146c-3.128-2.405-6.874-3.626-10.646-3.626    c-3.025,0-6.065,0.786-8.819,2.375l-7.086,4.093c-0.684,0.396-1.555,0.157-1.949-0.522l-11.584-20.065    c-0.245-0.424-0.211-0.821-0.142-1.081c0.069-0.261,0.241-0.622,0.664-0.867l7.084-4.091c6.182-3.57,9.577-10.426,8.649-17.469    c-0.354-2.683-0.533-5.415-0.533-8.123c0-2.717,0.178-5.455,0.529-8.137c0.923-7.039-2.473-13.892-8.651-17.458l-7.078-4.087    c-0.681-0.393-0.916-1.268-0.522-1.949l11.584-20.064c0.245-0.424,0.606-0.595,0.867-0.664c0.261-0.07,0.659-0.102,1.082,0.142    l7.084,4.091c6.188,3.569,13.826,3.077,19.461-1.25c4.327-3.325,9.065-6.065,14.084-8.145c6.55-2.713,10.782-9.079,10.782-16.218    v-8.161c0-0.786,0.64-1.426,1.426-1.426h23.168c0.786,0,1.426,0.64,1.426,1.426v8.162c0,7.138,4.232,13.504,10.78,16.217    c5.014,2.078,9.752,4.818,14.081,8.147c5.636,4.332,13.278,4.823,19.464,1.249l7.087-4.092c0.424-0.245,0.822-0.212,1.082-0.142    c0.261,0.069,0.622,0.241,0.867,0.664l11.584,20.064c0.245,0.424,0.211,0.822,0.142,1.082c-0.069,0.26-0.241,0.623-0.664,0.867    l-7.084,4.089c-6.182,3.57-9.577,10.427-8.649,17.469c0.354,2.684,0.532,5.416,0.532,8.123c0,2.717-0.178,5.456-0.529,8.137    c-0.923,7.039,2.473,13.893,8.651,17.459l7.079,4.087C334.114,183.886,334.348,184.76,333.954,185.441z" data-original="#000000" class="active-path" data-old_color="#000000" fill="#FFFFFF"/>
	</g>
</g><g>
	<g>
		<path d="M256,113.389c-22.289,0-40.421,18.132-40.421,40.421c0,22.289,18.132,40.421,40.421,40.421s40.421-18.132,40.421-40.421    S278.289,113.389,256,113.389z M256,178.063c-13.372,0-24.253-10.88-24.253-24.253c0-13.372,10.88-24.253,24.253-24.253    c13.372,0,24.253,10.88,24.253,24.253C280.253,167.183,269.372,178.063,256,178.063z" data-original="#000000" class="active-path" data-old_color="#000000" fill="#FFFFFF"/>
	</g>
</g><g>
	<g>
		<path d="M389.701,245.05c16.545-25.647,25.288-55.407,25.288-86.06c0-42.117-16.303-81.807-45.906-111.759    C339.506,17.305,300.061,0.536,258.017,0.012C257.343,0.004,256.674,0,256.002,0c-41.668,0-81.045,16.102-111.071,45.471    c-30.486,29.82-47.502,69.576-47.914,111.944c-0.3,30.963,8.305,61.053,24.885,87.017c14.795,23.173,35.219,42.013,59.348,54.881    l-43.468,60.857c-3.111,4.354-3.521,10.013-1.074,14.769c2.448,4.758,7.293,7.712,12.643,7.712h33.89v15.052    c0,9.532,7.753,17.285,17.285,17.285h110.946c9.532,0,17.285-7.753,17.285-17.285v-15.051h33.89    c5.351,0,10.195-2.955,12.643-7.712c2.448-4.757,2.037-10.416-1.073-14.769l-43.47-60.857    C354.651,286.564,374.94,267.934,389.701,245.05z M183.242,366.484h-30.101l30.101-42.141V366.484z M312.589,397.704    c0,0.615-0.501,1.117-1.117,1.117H200.527c-0.615,0-1.117-0.501-1.117-1.117v-4.918l113.179-9.432V397.704z M312.589,367.13    l-113.179,9.432v-16.113l113.179-9.432V367.13z M358.859,366.484h-30.101v-42.141L358.859,366.484z M317.204,288.062    c-2.819,1.339-4.614,4.181-4.614,7.302v7.093l-24.982,2.081c-4.19,0.349-7.413,3.851-7.413,8.056c0,4.73,4.042,8.449,8.755,8.056    l23.64-1.969v16.113l-113.179,9.432v-16.113l50.161-4.18c4.19-0.349,7.413-3.851,7.413-8.056c0-4.73-4.042-8.449-8.755-8.056    l-48.819,4.068v-16.524c0-3.122-1.796-5.963-4.614-7.302c-50.114-23.809-82.147-75.029-81.61-130.492    c0.369-38.041,15.657-73.747,43.051-100.541c26.984-26.392,62.349-40.861,99.77-40.861c0.601,0,1.205,0.003,1.808,0.011    c77.751,0.968,141.006,65.033,141.006,142.81C398.821,213.844,366.784,264.507,317.204,288.062z" data-original="#000000" class="active-path" data-old_color="#000000" fill="#FFFFFF"/>
	</g>
</g><g>
	<g>
		<path d="M256,474.274c-4.466,0-8.084,3.618-8.084,8.084v10.779c0,4.466,3.619,8.084,8.084,8.084c4.466,0,8.084-3.619,8.084-8.084    v-10.779C264.084,477.892,260.466,474.274,256,474.274z" data-original="#000000" class="active-path" data-old_color="#000000" fill="#FFFFFF"/>
	</g>
</g><g>
	<g>
		<path d="M212.884,420.379c-4.466,0-8.084,3.618-8.084,8.084v75.453c0,4.466,3.619,8.084,8.084,8.084s8.084-3.618,8.084-8.084    v-75.453C220.968,423.997,217.35,420.379,212.884,420.379z" data-original="#000000" class="active-path" data-old_color="#000000" fill="#FFFFFF"/>
	</g>
</g><g>
	<g>
		<path d="M299.116,420.379c-4.466,0-8.084,3.618-8.084,8.084v75.453c0,4.466,3.619,8.084,8.084,8.084    c4.466,0,8.084-3.618,8.084-8.084v-75.453C307.2,423.997,303.582,420.379,299.116,420.379z" data-original="#000000" class="active-path" data-old_color="#000000" fill="#FFFFFF"/>
	</g>
</g><g>
	<g>
		<path d="M256,420.379c-4.466,0-8.084,3.618-8.084,8.084v21.558c0,4.466,3.619,8.084,8.084,8.084c4.466,0,8.084-3.619,8.084-8.084    v-21.558C264.084,423.997,260.466,420.379,256,420.379z" data-original="#000000" class="active-path" data-old_color="#000000" fill="#FFFFFF"/>
	</g>
</g></g> </svg>
