<?xml version="1.0" encoding="iso-8859-1"?>
<!-- Generator: Adobe Illustrator 19.0.0, SVG Export Plug-In . SVG Version: 6.00 Build 0)  -->
<svg version="1.1" id="Layer_1" xmlns="http://www.w3.org/2000/svg" xmlns:xlink="http://www.w3.org/1999/xlink" x="0px" y="0px"
	 viewBox="0 0 512.429 512.429" style="enable-background:new 0 0 512.429 512.429;" xml:space="preserve">
<g>
	<polygon style="fill:#2B2B2B;" points="90.4,333.87 12.8,256.27 90.4,178.669 101.6,189.87 35.2,256.27 101.6,322.669 	"/>
	<polygon style="fill:#2B2B2B;" points="421.6,333.87 410.4,322.669 476.8,256.27 410.4,189.87 421.6,178.669 499.2,256.27 	"/>
	<polygon style="fill:#2B2B2B;" points="256,499.47 178.4,421.87 189.6,410.669 256,477.07 322.4,410.669 333.6,421.87 	"/>
	<polygon style="fill:#2B2B2B;" points="322.4,101.87 256,35.47 189.6,101.87 178.4,90.669 256,13.07 333.6,90.669 	"/>
	<rect x="248" y="80.27" style="fill:#2B2B2B;" width="16" height="16"/>
	<rect x="248" y="416.27" style="fill:#2B2B2B;" width="16" height="16"/>
	<rect x="80" y="248.27" style="fill:#2B2B2B;" width="16" height="16"/>
	<rect x="416" y="248.27" style="fill:#2B2B2B;" width="16" height="16"/>
</g>
<g>
	
		<rect x="236.941" y="-17.726" transform="matrix(0.7071 -0.7071 0.7071 0.7071 -114.3563 276.4619)" style="fill:#FF661A;" width="79.199" height="587.994"/>
	<polygon style="fill:#FF661A;" points="0,0.27 40,96.27 96,40.27 	"/>
</g>
<polygon style="fill:#E35B17;" points="0,0.27 40,96.27 96,40.27 "/>
<rect x="427.719" y="396.93" transform="matrix(-0.7071 -0.7071 0.7071 -0.7071 435.146 1053.3016)" style="fill:#2B2B2B;" width="16" height="79.199"/>
<g>
	
		<rect x="-57.978" y="236.142" transform="matrix(0.7071 -0.7071 0.7071 0.7071 -125.8503 247.6535)" style="fill:#3fb1a2;" width="587.994" height="79.199"/>
	<polygon style="fill:#3fb1a2;" points="512,0.27 472,96.27 416,40.27 	"/>
</g>
<polygon style="fill:#1CCACA;" points="512,0.27 472,96.27 416,40.27 "/>
<rect x="36.689" y="428.533" transform="matrix(-0.7071 -0.7071 0.7071 -0.7071 -178.4429 799.153)" style="fill:#2B2B2B;" width="79.199" height="16"/>
<rect x="216.947" y="216.668" transform="matrix(-0.7071 0.7071 -0.7071 -0.7071 619.161 256.0708)" style="fill:#545B17;" width="79.199" height="79.199"/>
<g>
</g>
<g>
</g>
<g>
</g>
<g>
</g>
<g>
</g>
<g>
</g>
<g>
</g>
<g>
</g>
<g>
</g>
<g>
</g>
<g>
</g>
<g>
</g>
<g>
</g>
<g>
</g>
<g>
</g>
</svg>
