<?xml version="1.0" encoding="iso-8859-1"?>
<!-- Generator: Adobe Illustrator 19.0.0, SVG Export Plug-In . SVG Version: 6.00 Build 0)  -->
<svg xmlns="http://www.w3.org/2000/svg" xmlns:xlink="http://www.w3.org/1999/xlink" version="1.1" id="Capa_1" x="0px" y="0px" viewBox="0 0 512.796 512.796" style="enable-background:new 0 0 512.796 512.796;" xml:space="preserve">
<polygon style="fill:#F26729;" points="341.552,372.566 256.401,319.341 171.243,372.566 118.019,340.631 118.019,415.146   256.401,500.301 394.778,415.146 394.778,340.631 "/>
<g>
	<polygon style="fill:#403E3E;" points="256.401,512.796 107.375,421.089 107.375,340.631 128.663,340.631 128.663,409.197    256.401,487.807 384.133,409.197 384.133,340.631 405.422,340.631 405.422,421.089  "/>
	<rect x="245.757" y="319.341" style="fill:#403E3E;" width="21.291" height="180.958"/>
	<path style="fill:#403E3E;" d="M171.283,385.091L12.664,287.48l105.315-65.822l158.617,97.61L171.283,385.091z M53.059,287.335   l118.143,72.705l65.002-40.624L118.061,246.71L53.059,287.335z"/>
	<path style="fill:#403E3E;" d="M341.511,385.091l-105.308-65.822l158.616-97.611l105.314,65.822L341.511,385.091z M276.594,319.416   l65.001,40.624l118.141-72.705l-65.003-40.625L276.594,319.416z"/>
	<polygon style="fill:#403E3E;" points="112.379,243.213 12.778,180.96 112.379,118.708 123.659,136.765 52.945,180.96    123.659,225.157  "/>
	<polygon style="fill:#403E3E;" points="400.421,243.213 389.132,225.157 459.852,180.96 389.132,136.765 400.421,118.708    500.017,180.96  "/>
</g>
<path style="fill:#3fb1a2;" d="M256.401,42.578c41.16,0,74.506,33.36,74.506,74.512c0,41.155-33.345,74.514-74.506,74.514  c-41.155,0-74.513-33.36-74.513-74.514C181.888,75.938,215.245,42.578,256.401,42.578z"/>
<g>
	<path style="fill:#403E3E;" d="M309.618,298.052H288.33v-42.577c0-25.698,14.108-39.803,24.408-50.105   c28.026-28.031,39.461-53.608,39.461-88.287c0-52.817-42.976-95.791-95.796-95.791c-52.824,0-95.803,42.974-95.803,95.791   c0,34.68,11.435,60.256,39.461,88.287c10.301,10.301,24.408,24.409,24.408,50.105v42.577h-21.289v-42.577   c0-16.882-8.826-25.707-18.171-35.053c-32.034-32.027-45.697-62.933-45.697-103.34C139.308,52.522,191.836,0,256.401,0   c64.559,0,117.086,52.522,117.086,117.081c0,40.407-13.67,71.312-45.697,103.34c-9.347,9.346-18.173,18.171-18.173,35.053   L309.618,298.052L309.618,298.052z"/>
	<rect x="213.822" y="244.829" style="fill:#403E3E;" width="85.152" height="21.29"/>
	<rect x="245.757" y="117.094" style="fill:#403E3E;" width="21.291" height="138.382"/>
	<rect x="213.822" y="106.447" style="fill:#403E3E;" width="85.152" height="21.29"/>
</g>
<g>
</g>
<g>
</g>
<g>
</g>
<g>
</g>
<g>
</g>
<g>
</g>
<g>
</g>
<g>
</g>
<g>
</g>
<g>
</g>
<g>
</g>
<g>
</g>
<g>
</g>
<g>
</g>
<g>
</g>
</svg>
