<?xml version="1.0" encoding="iso-8859-1"?>
<!-- Generator: Adobe Illustrator 19.0.0, SVG Export Plug-In . SVG Version: 6.00 Build 0)  -->
<svg xmlns="http://www.w3.org/2000/svg" xmlns:xlink="http://www.w3.org/1999/xlink" version="1.1" id="Capa_1" x="0px" y="0px" viewBox="0 0 510.966 510.966" style="enable-background:new 0 0 510.966 510.966;" xml:space="preserve">
<rect x="202.258" y="180.964" style="fill:#F26729;" width="106.453" height="74.518"/>
<g>
	<path style="fill:#403E3E;" d="M255.483,510.966v-21.29c46.957,0,85.161-38.205,85.161-85.161c0-27.464-8.078-46.25-28.817-66.99   c-10.479-10.48-24.407-27.07-24.407-50.109v-31.935h21.291v31.935c0,11.52,5.77,22.654,18.171,35.055   c24.576,24.566,35.054,49.108,35.054,82.043C361.934,463.21,314.178,510.966,255.483,510.966z"/>
	<path style="fill:#403E3E;" d="M255.483,510.966c-58.698,0-106.451-47.756-106.451-106.451c0-32.933,10.484-57.478,35.055-82.043   c12.397-12.402,18.171-23.545,18.171-35.055v-31.934h21.29v31.934c0,23.026-13.929,39.629-24.408,50.108   c-20.74,20.74-28.817,39.525-28.817,66.99c0,46.956,38.203,85.159,85.161,85.159v21.292H255.483z"/>
	<rect x="191.611" y="244.841" style="fill:#403E3E;" width="127.741" height="21.289"/>
	<rect x="191.611" y="202.258" style="fill:#403E3E;" width="127.741" height="21.291"/>
	<rect x="244.841" y="255.482" style="fill:#403E3E;" width="21.291" height="149.029"/>
	<rect x="244.841" y="106.453" style="fill:#403E3E;" width="21.291" height="74.518"/>
	<rect x="212.899" y="393.87" style="fill:#403E3E;" width="85.158" height="21.29"/>
</g>
<path style="fill:#3fb1a2;" d="M61.292,106.45h388.392c-44.764-58.241-115.072-95.806-194.202-95.806  C176.357,10.645,106.045,48.209,61.292,106.45z"/>
<path style="fill:#403E3E;" d="M433.332,433.33l-15.055-15.052c32.57-32.573,71.396-87.25,71.396-162.797  c0-129.135-105.058-234.192-234.192-234.192c-129.134,0-234.192,105.059-234.192,234.194c0,75.545,38.828,130.226,71.398,162.795  L77.634,433.33C42.217,397.914,0,338.315,0,255.483C0,114.611,114.612,0,255.483,0c140.871,0,255.483,114.612,255.483,255.484  C510.966,338.315,468.75,397.914,433.332,433.33z"/>
<g>
</g>
<g>
</g>
<g>
</g>
<g>
</g>
<g>
</g>
<g>
</g>
<g>
</g>
<g>
</g>
<g>
</g>
<g>
</g>
<g>
</g>
<g>
</g>
<g>
</g>
<g>
</g>
<g>
</g>
</svg>
