<?xml version="1.0" encoding="iso-8859-1"?>
<!-- Generator: Adobe Illustrator 19.0.0, SVG Export Plug-In . SVG Version: 6.00 Build 0)  -->
<svg version="1.1" id="Layer_1" xmlns="http://www.w3.org/2000/svg" xmlns:xlink="http://www.w3.org/1999/xlink" x="0px" y="0px"
	 viewBox="0 0 512 512" style="enable-background:new 0 0 512 512;" xml:space="preserve">
<polygon style="fill:#F26729;" points="185.073,215.886 185.073,73.261 0,73.261 0,307.037 48.701,307.037 48.701,373.275 
	114.939,307.037 389.622,307.037 389.622,215.886 "/>
<g>
	<rect x="259.328" y="66.994" style="fill:#242D3C;" width="169.011" height="19.479"/>
	<rect x="259.328" y="104.844" style="fill:#242D3C;" width="169.011" height="19.482"/>
	<rect x="259.328" y="142.688" style="fill:#242D3C;" width="84.506" height="19.479"/>
	<path style="fill:#242D3C;" d="M512,225.271H175.683V3.892H512V225.271z M194.458,206.499H493.23V22.67H194.458V206.499z"/>
</g>
<rect x="151.962" y="363.928" style="fill:#3fb1a2;" width="300.006" height="144.179"/>
<g>
	<rect x="194.816" y="387.327" style="fill:#FFFFFF;" width="19.482" height="19.482"/>
	<rect x="233.779" y="387.327" style="fill:#FFFFFF;" width="19.479" height="19.482"/>
	<rect x="272.742" y="387.327" style="fill:#FFFFFF;" width="19.479" height="19.482"/>
	<rect x="311.706" y="387.327" style="fill:#FFFFFF;" width="19.479" height="19.482"/>
	<rect x="350.669" y="387.327" style="fill:#FFFFFF;" width="19.479" height="19.482"/>
	<rect x="389.632" y="387.327" style="fill:#FFFFFF;" width="19.479" height="19.482"/>
	<rect x="194.816" y="465.253" style="fill:#FFFFFF;" width="19.482" height="19.479"/>
	<rect x="389.632" y="465.253" style="fill:#FFFFFF;" width="19.479" height="19.479"/>
	<rect x="233.779" y="465.253" style="fill:#FFFFFF;" width="136.371" height="19.479"/>
	<rect x="175.334" y="426.29" style="fill:#FFFFFF;" width="19.479" height="19.479"/>
	<rect x="214.298" y="426.29" style="fill:#FFFFFF;" width="19.479" height="19.479"/>
	<rect x="253.261" y="426.29" style="fill:#FFFFFF;" width="19.479" height="19.479"/>
	<rect x="292.224" y="426.29" style="fill:#FFFFFF;" width="19.489" height="19.479"/>
	<rect x="331.187" y="426.29" style="fill:#FFFFFF;" width="19.479" height="19.479"/>
	<rect x="370.15" y="426.29" style="fill:#FFFFFF;" width="19.479" height="19.479"/>
	<rect x="409.114" y="426.29" style="fill:#FFFFFF;" width="19.479" height="19.479"/>
</g>
<g>
	<rect x="434.278" y="287.128" style="fill:#242D3C;" width="62.188" height="19.479"/>
	<rect x="360.397" y="324.965" style="fill:#242D3C;" width="136.064" height="19.479"/>
</g>
<g>
</g>
<g>
</g>
<g>
</g>
<g>
</g>
<g>
</g>
<g>
</g>
<g>
</g>
<g>
</g>
<g>
</g>
<g>
</g>
<g>
</g>
<g>
</g>
<g>
</g>
<g>
</g>
<g>
</g>
</svg>
