<?xml version="1.0" encoding="iso-8859-1"?>
<!-- Generator: Adobe Illustrator 19.0.0, SVG Export Plug-In . SVG Version: 6.00 Build 0)  -->
<svg version="1.1" id="Layer_1" xmlns="http://www.w3.org/2000/svg" xmlns:xlink="http://www.w3.org/1999/xlink" x="0px" y="0px"
	 viewBox="0 0 512 512" style="enable-background:new 0 0 512 512;" xml:space="preserve">
<path style="fill:#3fb1a2;" d="M410.811,180.849c-2.281,0-4.849,0.166-7.841,0.515l-23.368,2.685l-5.486-22.879
	c-13.125-54.799-61.701-93.074-118.118-93.074c-56.399,0-104.993,38.282-118.167,93.097l-5.507,22.897l-23.393-2.734
	c-2.911-0.34-5.44-0.507-7.734-0.507c-35.935,0-65.167,29.233-65.167,65.162c0,35.914,29.233,65.137,65.167,65.137H256v-45.629
	h-37.921l56.891-56.888l56.888,56.888h-37.932v45.629h116.887c35.93,0,65.16-29.222,65.16-65.137
	C475.971,210.081,446.74,180.849,410.811,180.849z"/>
<path style="fill:#FFFFFF;" d="M184.1,172.319l-18.437-4.436c10.071-41.897,47.219-71.155,90.335-71.155v18.962
	C221.681,115.689,192.118,138.975,184.1,172.319z"/>
<g>
	<path style="fill:#FFFFFF;" d="M237.038,479.933l-79.788-79.777h51.341v-32.118c0-5.571-2.171-10.808-6.111-14.748
		c-3.94-3.942-9.178-6.113-14.748-6.113h-86.536C45.396,347.177,0,301.793,0,246.011c0-55.795,45.396-101.192,101.197-101.192
		c1.211,0,2.445,0.026,3.704,0.077C124.6,78.062,185.608,32.067,255.997,32.067c70.418,0,131.412,45.993,151.063,112.835
		c1.28-0.054,2.529-0.082,3.75-0.082c55.798,0,101.189,45.396,101.189,101.192c0,55.782-45.391,101.166-101.189,101.166h-86.548
		c-10.637,0-20.639-4.14-28.16-11.668c-7.519-7.519-11.663-17.518-11.663-28.155v-51.318h24.522l-33.994-33.999l-33.997,33.999
		h24.512v55.109h-18.964v-36.147h-51.333l79.782-79.782l79.78,79.782h-51.346v32.356c0,5.571,2.173,10.808,6.108,14.748
		c3.942,3.942,9.183,6.113,14.753,6.113h86.548c45.338,0,82.227-36.874,82.227-82.204c0-45.34-36.89-82.23-82.227-82.23
		c-2.941,0-6.141,0.205-9.787,0.622l-8.348,0.96l-1.958-8.169C375.739,94.687,320.34,51.031,255.997,51.031
		c-64.32,0-119.736,43.658-134.764,106.171l-1.969,8.177l-8.356-0.978c-3.571-0.415-6.748-0.62-9.715-0.62
		c-45.345,0-82.235,36.89-82.235,82.23c0,45.33,36.89,82.204,82.235,82.204h86.538c10.637,0,20.636,4.14,28.155,11.668
		c7.521,7.519,11.666,17.518,11.666,28.155v51.08h-24.517l33.999,33.997l33.992-33.997h-24.512v-55.114h18.964v36.152h51.328
		L237.038,479.933z"/>
	<rect x="246.528" y="328.218" style="fill:#FFFFFF;" width="18.964" height="18.962"/>
</g>
<g>
</g>
<g>
</g>
<g>
</g>
<g>
</g>
<g>
</g>
<g>
</g>
<g>
</g>
<g>
</g>
<g>
</g>
<g>
</g>
<g>
</g>
<g>
</g>
<g>
</g>
<g>
</g>
<g>
</g>
</svg>
