<?xml version="1.0" encoding="iso-8859-1"?>
<!-- Generator: Adobe Illustrator 19.0.0, SVG Export Plug-In . SVG Version: 6.00 Build 0)  -->
<svg version="1.1" id="Layer_1" xmlns="http://www.w3.org/2000/svg" xmlns:xlink="http://www.w3.org/1999/xlink" x="0px" y="0px"
	 viewBox="0 0 512 512" style="enable-background:new 0 0 512 512;" xml:space="preserve">
<g>
	<polygon style="fill:#242D3C;" points="500.454,471.926 422.31,471.926 422.31,451.889 480.417,451.889 480.417,276.073 
		500.454,276.073 	"/>
	<path style="fill:#242D3C;" d="M472.402,512h-60.111V86.09l30.057-30.057l30.054,30.057V512z M432.328,491.963h20.037V94.387
		l-10.017-10.02l-10.02,10.02V491.963z"/>
	<rect x="422.323" y="266.061" style="fill:#242D3C;" width="40.074" height="20.035"/>
	<rect x="432.333" y="50.13" style="fill:#242D3C;" width="20.037" height="20.073"/>
	<path style="fill:#242D3C;" d="M392.253,512H11.546V0h294.61l86.098,86.106V512z M31.583,491.963h340.636V94.403l-74.358-74.365
		H31.583V491.963z"/>
	<polygon style="fill:#242D3C;" points="382.228,100.257 291.991,100.257 291.991,10.02 312.026,10.02 312.026,80.22 382.228,80.22 
			"/>
	<rect x="73.659" y="80.23" style="fill:#242D3C;" width="128.23" height="20.037"/>
	<rect x="81.674" y="271.565" style="fill:#242D3C;" width="240.435" height="20.037"/>
	<rect x="71.657" y="311.629" style="fill:#242D3C;" width="260.48" height="20.037"/>
	<rect x="71.657" y="351.693" style="fill:#242D3C;" width="260.48" height="20.037"/>
	<rect x="71.657" y="391.782" style="fill:#242D3C;" width="260.48" height="20.037"/>
	<rect x="71.657" y="431.846" style="fill:#242D3C;" width="260.48" height="20.037"/>
</g>
<rect x="81.674" y="173.21" style="fill:#3fb1a2;" width="240.435" height="108.365"/>
<g>
	<polygon style="fill:#242D3C;" points="332.142,291.589 71.657,291.589 71.657,173.212 91.694,173.212 91.694,271.552 
		312.105,271.552 312.105,173.212 332.142,173.212 	"/>
	<path style="fill:#242D3C;" d="M332.142,183.232H71.657v-62.938h260.485V183.232z M91.694,163.195h220.411v-22.863H91.694V163.195z
		"/>
	<rect x="252.006" y="130.312" style="fill:#242D3C;" width="20.037" height="151.27"/>
	<rect x="191.882" y="130.312" style="fill:#242D3C;" width="20.037" height="151.27"/>
</g>
<g>
</g>
<g>
</g>
<g>
</g>
<g>
</g>
<g>
</g>
<g>
</g>
<g>
</g>
<g>
</g>
<g>
</g>
<g>
</g>
<g>
</g>
<g>
</g>
<g>
</g>
<g>
</g>
<g>
</g>
</svg>
