<?xml version="1.0" encoding="iso-8859-1"?>
<!-- Generator: Adobe Illustrator 19.0.0, SVG Export Plug-In . SVG Version: 6.00 Build 0)  -->
<svg version="1.1" id="Layer_1" xmlns="http://www.w3.org/2000/svg" xmlns:xlink="http://www.w3.org/1999/xlink" x="0px" y="0px"
	 viewBox="0 0 512 512" style="enable-background:new 0 0 512 512;" xml:space="preserve">
<g>
	<polygon style="fill:#3fb1a2;" points="336.453,249.267 255.977,491.021 175.483,249.267 	"/>
	<polygon style="fill:#3fb1a2;" points="14.252,249.267 115.039,148.598 175.483,249.267 	"/>
	<polygon style="fill:#3fb1a2;" points="497.748,249.267 396.89,148.598 336.453,249.267 	"/>
</g>
<g>
	<path style="fill:#242D3C;" d="M255.977,505.265L0,249.265l110.874-110.738H401.06L512,249.26L255.977,505.265z M28.503,249.272
		L255.977,476.78l227.52-227.502l-90.775-90.604H119.206L28.503,249.272z"/>
	<rect x="175.488" y="239.206" style="fill:#242D3C;" width="160.968" height="20.145"/>
	<polygon style="fill:#242D3C;" points="246.418,494.203 168.22,259.341 14.252,259.341 14.252,239.196 182.748,239.196 
		265.536,487.839 	"/>
	<polygon style="fill:#242D3C;" points="265.536,494.203 246.418,487.839 329.19,239.196 497.748,239.196 497.748,259.341 
		343.718,259.341 	"/>
	<polygon style="fill:#242D3C;" points="193.28,259.341 14.252,259.341 14.252,239.196 157.688,239.196 106.401,153.784 
		123.676,143.414 	"/>
	
		<rect x="205.651" y="134.465" transform="matrix(-0.7809 -0.6246 0.6246 -0.7809 259.9422 488.9903)" style="fill:#242D3C;" width="20.144" height="128.891"/>
	<polygon style="fill:#242D3C;" points="337.631,266.875 248.108,154.89 263.844,142.31 335.278,231.66 388.252,143.414 
		405.527,153.784 	"/>
	<rect x="245.914" y="6.735" style="fill:#242D3C;" width="20.145" height="60.436"/>
	
		<rect x="307.906" y="19.069" transform="matrix(-0.9238 -0.3828 0.3828 -0.9238 592.8659 216.5482)" style="fill:#242D3C;" width="20.144" height="60.44"/>
	
		<rect x="360.486" y="54.178" transform="matrix(-0.7071 -0.7071 0.7071 -0.7071 572.9023 406.1002)" style="fill:#242D3C;" width="20.142" height="60.441"/>
	
		<rect x="163.793" y="39.22" transform="matrix(-0.3827 -0.9239 0.9239 -0.3827 222.7196 247.4001)" style="fill:#242D3C;" width="60.441" height="20.145"/>
	
		<rect x="111.232" y="74.312" transform="matrix(-0.707 -0.7072 0.7072 -0.707 181.7799 244.0789)" style="fill:#242D3C;" width="60.436" height="20.144"/>
</g>
<g>
</g>
<g>
</g>
<g>
</g>
<g>
</g>
<g>
</g>
<g>
</g>
<g>
</g>
<g>
</g>
<g>
</g>
<g>
</g>
<g>
</g>
<g>
</g>
<g>
</g>
<g>
</g>
<g>
</g>
</svg>
