<?xml version="1.0" encoding="iso-8859-1"?>
<!-- Generator: Adobe Illustrator 19.0.0, SVG Export Plug-In . SVG Version: 6.00 Build 0)  -->
<svg xmlns="http://www.w3.org/2000/svg" xmlns:xlink="http://www.w3.org/1999/xlink" version="1.1" id="Capa_1" x="0px" y="0px" viewBox="0 0 512 512" style="enable-background:new 0 0 512 512;" xml:space="preserve">
<g>
	<polygon style="fill:#403E3E;" points="448,85.334 373.333,85.334 373.333,10.666 394.666,10.666 394.666,64 448,64  "/>
	<polygon style="fill:#403E3E;" points="373.333,512 53.334,512 53.334,0 388.417,0 458.666,70.25 458.666,426.667 437.333,426.667    437.333,79.084 379.583,21.334 74.666,21.334 74.666,490.667 373.333,490.667  "/>
	<path style="fill:#403E3E;" d="M256,426.667c-64.692,0-117.334-52.646-117.334-117.334C138.666,244.64,191.308,192,256,192   c64.687,0,117.333,52.64,117.333,117.334C373.333,374.021,320.687,426.667,256,426.667z M256,213.334c-52.927,0-96,43.073-96,96   c0,52.937,43.073,96,96,96c52.937,0,96-43.063,96-96C352,256.406,308.937,213.334,256,213.334z"/>
</g>
<path style="fill:#3fb1a2;" d="M256,234.666c41.24,0,74.666,33.427,74.666,74.666S297.24,383.999,256,383.999  s-74.666-33.427-74.666-74.666C181.334,268.093,214.76,234.666,256,234.666z"/>
<rect x="324.043" y="389.336" transform="matrix(0.7071 0.7071 -0.7071 0.7071 384.381 -127.9752)" style="fill:#403E3E;" width="45.254" height="21.331"/>
<polygon style="fill:#F26729;" points="426.666,512 458.666,512 458.666,480 373.344,394.667 341.344,426.667 "/>
<path style="fill:#FFFFFF;" d="M224,309.334h-21.334C202.666,279.927,226.594,256,256,256v21.334  C238.359,277.334,224,291.688,224,309.334z"/>
<g>
	<rect x="106.664" y="64" style="fill:#403E3E;" width="149.336" height="21.334"/>
	<rect x="106.664" y="106.664" style="fill:#403E3E;" width="95.996" height="21.334"/>
	<rect x="223.996" y="106.664" style="fill:#403E3E;" width="181.332" height="21.334"/>
	<rect x="106.664" y="149.336" style="fill:#403E3E;" width="213.336" height="21.334"/>
	<rect x="341.336" y="149.336" style="fill:#403E3E;" width="64" height="21.334"/>
	<rect x="202.668" y="448" style="fill:#403E3E;" width="21.334" height="21.334"/>
	<rect x="245.332" y="448" style="fill:#403E3E;" width="21.334" height="21.334"/>
	<rect x="287.996" y="448" style="fill:#403E3E;" width="21.333" height="21.334"/>
</g>
<g>
</g>
<g>
</g>
<g>
</g>
<g>
</g>
<g>
</g>
<g>
</g>
<g>
</g>
<g>
</g>
<g>
</g>
<g>
</g>
<g>
</g>
<g>
</g>
<g>
</g>
<g>
</g>
<g>
</g>
</svg>
