<?xml version="1.0" encoding="iso-8859-1"?>
<!-- Generator: Adobe Illustrator 19.0.0, SVG Export Plug-In . SVG Version: 6.00 Build 0)  -->
<svg version="1.1" id="Layer_1" xmlns="http://www.w3.org/2000/svg" xmlns:xlink="http://www.w3.org/1999/xlink" x="0px" y="0px"
	 viewBox="0 0 512 512" style="enable-background:new 0 0 512 512;" xml:space="preserve">
<g>
	<path style="fill:#242D3C;" d="M71.622,512c-5.732,0-11.543-0.952-17.224-2.934c-22.909-7.992-37.097-30.415-34.506-54.541
		l19.402-180.692l17.311,1.856L37.203,456.384c-1.72,16.031,7.711,30.932,22.93,36.242c15.222,5.307,31.875-0.497,40.499-14.116
		l52.086-82.294l14.712,9.313l-52.086,82.294C105.588,503.235,88.991,512,71.622,512z"/>
	<path style="fill:#242D3C;" d="M440.377,512c-17.37,0-33.961-8.76-43.72-24.177l-52.088-82.294l14.712-9.313l52.088,82.294
		c8.625,13.617,25.277,19.423,40.494,14.116c15.224-5.309,24.655-20.214,22.93-36.239l-19.397-180.698l17.311-1.856l19.4,180.692
		c2.596,24.12-11.594,46.551-34.506,54.541C451.92,511.048,446.106,512,440.377,512z"/>
</g>
<g>
	<circle style="fill:#3fb1a2;" cx="125.407" cy="227.84" r="90.547"/>
	<path style="fill:#3fb1a2;" d="M477.154,227.85c0,50.004-40.543,90.55-90.55,90.55c-49.999,0-90.547-40.545-90.547-90.55
		c0-50.007,40.548-90.55,90.547-90.55C436.611,137.3,477.154,177.843,477.154,227.85z"/>
</g>
<g>
	<path style="fill:#242D3C;" d="M125.405,327.104c-54.73,0-99.256-44.526-99.256-99.254s44.526-99.256,99.256-99.256
		s99.256,44.526,99.256,99.256S180.135,327.104,125.405,327.104z M125.405,146.007c-45.128,0-81.843,36.716-81.843,81.843
		s36.713,81.843,81.843,81.843s81.843-36.716,81.843-81.843C207.248,182.72,170.535,146.007,125.405,146.007z"/>
	<path style="fill:#242D3C;" d="M386.604,327.104c-54.728,0-99.254-44.526-99.254-99.254s44.529-99.256,99.254-99.256
		c54.73,0,99.256,44.526,99.256,99.256S441.335,327.104,386.604,327.104z M386.604,146.007c-45.128,0-81.843,36.716-81.843,81.843
		s36.715,81.843,81.843,81.843c45.13,0,81.846-36.716,81.846-81.843C468.447,182.72,431.734,146.007,386.604,146.007z"/>
</g>
<g>
	<rect x="377.908" y="184.317" style="fill:#FFFFFF;" width="17.413" height="17.413"/>
	<rect x="377.908" y="253.978" style="fill:#FFFFFF;" width="17.413" height="17.413"/>
	<rect x="343.066" y="219.136" style="fill:#FFFFFF;" width="17.413" height="17.413"/>
	<rect x="412.724" y="219.136" style="fill:#FFFFFF;" width="17.416" height="17.413"/>
</g>
<g>
	<circle style="fill:#F26729;" cx="175.898" cy="375.859" r="29.601"/>
	<circle style="fill:#F26729;" cx="336.103" cy="375.859" r="29.601"/>
</g>
<g>
	<path style="fill:#242D3C;" d="M175.903,414.172c-21.123,0-38.308-17.185-38.308-38.31c0-21.123,17.185-38.31,38.308-38.31
		s38.31,17.188,38.31,38.31C214.214,396.987,197.029,414.172,175.903,414.172z M175.903,354.967
		c-11.523,0-20.897,9.372-20.897,20.895s9.375,20.897,20.897,20.897c11.523,0,20.897-9.375,20.897-20.897
		C196.801,364.339,187.426,354.967,175.903,354.967z"/>
	<path style="fill:#242D3C;" d="M336.106,414.172c-21.125,0-38.31-17.185-38.31-38.31c0-21.123,17.185-38.31,38.31-38.31
		s38.31,17.188,38.31,38.31C374.416,396.987,357.231,414.172,336.106,414.172z M336.106,354.967
		c-11.523,0-20.895,9.372-20.895,20.895s9.372,20.897,20.895,20.897c11.523,0,20.895-9.375,20.895-20.897
		C357,364.339,347.628,354.967,336.106,354.967z"/>
	<rect x="185.601" y="151.501" style="fill:#242D3C;" width="140.826" height="17.413"/>
</g>
<g>
	<rect x="116.698" y="184.317" style="fill:#FFFFFF;" width="17.413" height="87.066"/>
	<rect x="81.872" y="219.136" style="fill:#FFFFFF;" width="87.066" height="17.413"/>
</g>
<g>
	<rect x="205.518" y="367.155" style="fill:#242D3C;" width="100.997" height="17.413"/>
	<path style="fill:#242D3C;" d="M264.71,160.202h-17.411v-17.413c0-3.254-1.27-6.316-3.569-8.62
		c-2.301-2.301-5.368-3.571-8.622-3.571h-17.413c-7.91,0-15.347-3.082-20.933-8.676c-5.588-5.581-8.668-13.015-8.668-20.925
		s3.082-15.345,8.676-20.933c5.581-5.588,13.015-8.668,20.928-8.668h113.183c3.254,0,6.318-1.27,8.614-3.569
		c2.307-2.307,3.574-5.368,3.574-8.622c0-3.254-1.267-6.316-3.569-8.614c-2.304-2.304-5.368-3.574-8.622-3.574h-53.98
		c-7.913,0-15.345-3.082-20.933-8.676c-5.588-5.581-8.668-13.015-8.668-20.925V0h17.411v17.413c0,3.254,1.27,6.316,3.569,8.614
		c2.307,2.304,5.368,3.574,8.622,3.574h53.98c7.913,0,15.347,3.082,20.936,8.676c5.588,5.581,8.668,13.015,8.668,20.925
		s-3.08,15.347-8.676,20.933c-5.581,5.588-13.015,8.668-20.928,8.668h-113.18c-3.254,0-6.316,1.27-8.614,3.569
		c-2.307,2.304-3.574,5.366-3.574,8.622s1.27,6.316,3.569,8.614c2.307,2.307,5.368,3.574,8.622,3.574h17.413
		c7.908,0,15.342,3.082,20.933,8.673c5.591,5.588,8.668,13.023,8.668,20.931v17.416H264.71z"/>
	<rect x="264.705" y="309.683" style="fill:#242D3C;" width="17.413" height="17.413"/>
	<rect x="229.889" y="309.683" style="fill:#242D3C;" width="17.413" height="17.413"/>
</g>
<g>
</g>
<g>
</g>
<g>
</g>
<g>
</g>
<g>
</g>
<g>
</g>
<g>
</g>
<g>
</g>
<g>
</g>
<g>
</g>
<g>
</g>
<g>
</g>
<g>
</g>
<g>
</g>
<g>
</g>
</svg>
