<?xml version="1.0" encoding="iso-8859-1"?>
<!-- Generator: Adobe Illustrator 19.0.0, SVG Export Plug-In . SVG Version: 6.00 Build 0)  -->
<svg version="1.1" id="Layer_1" xmlns="http://www.w3.org/2000/svg" xmlns:xlink="http://www.w3.org/1999/xlink" x="0px" y="0px"
	 viewBox="0 0 512 512" style="enable-background:new 0 0 512 512;" xml:space="preserve">
<path style="fill:#F26729;" d="M115.251,311.537l28.17-50.714l39.616,71.306c3.576-0.31,7.099-0.801,10.55-1.495l70.106-126.195
	c-13.45-36.073-48.197-61.768-88.957-61.768c-52.424,0-94.922,42.496-94.922,94.922C79.813,267.487,93.65,294.136,115.251,311.537z"
	/>
<g>
	<polygon style="fill:#242D3C;" points="414.953,474.061 269.658,212.531 164.042,402.644 148.058,393.766 269.658,174.881 
		430.94,465.175 	"/>
	<polygon style="fill:#242D3C;" points="35.42,474.056 19.436,465.178 143.421,241.994 195.889,336.438 179.904,345.318 
		143.421,279.652 	"/>
	<polygon style="fill:#242D3C;" points="476.577,474.061 399.475,335.281 376.66,376.356 360.676,367.478 399.475,297.631 
		492.564,465.175 	"/>
	<polygon style="fill:#242D3C;" points="297.085,332.803 269.658,305.375 242.23,332.803 208.335,298.911 221.263,285.98 
		242.23,306.944 269.658,279.519 297.085,306.944 318.049,285.98 330.977,298.911 	"/>
	<rect y="460.47" style="fill:#242D3C;" width="512" height="18.286"/>
</g>
<rect x="269.645" y="33.244" style="fill:#3fb1a2;" width="109.714" height="79.386"/>
<g>
	<rect x="260.506" y="33.244" style="fill:#242D3C;" width="18.286" height="160.461"/>
	<rect x="325.222" y="192.207" style="fill:#242D3C;" width="48.003" height="18.286"/>
	<rect x="349.235" y="139.625" style="fill:#242D3C;" width="67.965" height="18.286"/>
	<rect x="436.403" y="139.625" style="fill:#242D3C;" width="26.819" height="18.286"/>
</g>
<g>
</g>
<g>
</g>
<g>
</g>
<g>
</g>
<g>
</g>
<g>
</g>
<g>
</g>
<g>
</g>
<g>
</g>
<g>
</g>
<g>
</g>
<g>
</g>
<g>
</g>
<g>
</g>
<g>
</g>
</svg>
