<?xml version="1.0" encoding="iso-8859-1"?>
<!-- Generator: Adobe Illustrator 19.0.0, SVG Export Plug-In . SVG Version: 6.00 Build 0)  -->
<svg version="1.1" id="Layer_1" xmlns="http://www.w3.org/2000/svg" xmlns:xlink="http://www.w3.org/1999/xlink" x="0px" y="0px"
	 viewBox="0 0 512 512" style="enable-background:new 0 0 512 512;" xml:space="preserve">
<g>
	<path style="fill:#E3E3E3;" d="M48,248v-96c0-6.4-2.4-12-7.2-16.8S29.6,128,24,128s-12,2.4-16.8,7.2S0,146.4,0,152v150.4
		c0,3.2,0.8,6.4,1.6,8.8c1.6,3.2,3.2,5.6,4.8,8l51.2,51.2c4,4,8,9.6,10.4,15.2c2.4,6.4,4,12,4,18.4v28h64v-96L48,248z"/>
	<path style="fill:#E3E3E3;" d="M184,304l-56-56c-4-4-9.6-6.4-16-6.4s-12,3.2-16,7.2s-6.4,9.6-6.4,16s2.4,12,6.4,16l56,56
		c8,8,8,16,8,24v72h40v-72v-16C200,336,200,320,184,304z"/>
	<rect x="88" y="328" style="fill:#E3E3E3;" width="96" height="104"/>
</g>
<rect x="56" y="416" style="fill:#FF661A;" width="160" height="96"/>
<rect x="184" y="448" style="fill:#2B2B2B;" width="16" height="16"/>
<g>
	<path style="fill:#E3E3E3;" d="M464,248v-96c0-6.4,2.4-12,7.2-16.8s11.2-7.2,16.8-7.2s12,2.4,16.8,7.2s7.2,11.2,7.2,16.8v150.4
		c0,3.2-0.8,6.4-1.6,8.8c-1.6,3.2-3.2,5.6-4.8,8l-51.2,51.2c-4,4-8,9.6-10.4,15.2c-2.4,6.4-4,12-4,18.4v28h-64v-96L464,248z"/>
	<path style="fill:#E3E3E3;" d="M328,304l56-56c4-4,9.6-6.4,16-6.4s12,3.2,16,7.2s6.4,9.6,6.4,16s-2.4,12-6.4,16l-56,56
		c-8,8-8,16-8,24v72h-40v-72v-16C312,336,312,320,328,304z"/>
	<rect x="328" y="328" style="fill:#E3E3E3;" width="96" height="104"/>
</g>
<rect x="296" y="416" style="fill:#FF661A;" width="160" height="96"/>
<rect x="312" y="448" style="fill:#2B2B2B;" width="16" height="16"/>
<g>
	<path style="fill:#3fb1a2;" d="M256,0c0,0-56,74.4-56,112c0,31.2,24.8,56,56,56s56-24.8,56-56C312,74.4,256,0,256,0z"/>
	<path style="fill:#3fb1a2;" d="M232,256h-32c-20.8,0-40.8-8-56.8-23.2c-16-16-23.2-36-23.2-56.8v-32h32c20.8,0,40.8,8,56.8,23.2
		c16,16,23.2,36,23.2,56.8V256z"/>
	<path style="fill:#3fb1a2;" d="M280,256h32c20.8,0,40.8-8,56.8-23.2c16-16,23.2-36,23.2-56.8v-32h-32c-20.8,0-40.8,8-56.8,23.2
		c-16,16-23.2,36-23.2,56.8V256z"/>
</g>
<g>
	<rect x="248" y="112" style="fill:#2B2B2B;" width="16" height="304"/>
	<rect x="248" y="432" style="fill:#2B2B2B;" width="16" height="16"/>
	<rect x="248" y="464" style="fill:#2B2B2B;" width="16" height="16"/>
	<rect x="248" y="496" style="fill:#2B2B2B;" width="16" height="16"/>
</g>
<g>
	<rect x="72" y="416" style="fill:#E35B17;" width="128" height="16"/>
	<rect x="312" y="416" style="fill:#E35B17;" width="128" height="16"/>
</g>
<g>
</g>
<g>
</g>
<g>
</g>
<g>
</g>
<g>
</g>
<g>
</g>
<g>
</g>
<g>
</g>
<g>
</g>
<g>
</g>
<g>
</g>
<g>
</g>
<g>
</g>
<g>
</g>
<g>
</g>
</svg>
