<?xml version="1.0" encoding="iso-8859-1"?>
<!-- Generator: Adobe Illustrator 19.0.0, SVG Export Plug-In . SVG Version: 6.00 Build 0)  -->
<svg version="1.1" id="Layer_1" xmlns="http://www.w3.org/2000/svg" xmlns:xlink="http://www.w3.org/1999/xlink" x="0px" y="0px"
	 viewBox="0 0 512 512" style="enable-background:new 0 0 512 512;" xml:space="preserve">
<g>
	<path style="fill:#2B2B2B;" d="M48,343.7H32v-104c0-6.4,2.4-12.8,7.2-16.8c8.8-8.8,24.8-8.8,33.6,0c4.8,4.8,7.2,10.4,7.2,16.8v64
		H64v-64c0-2.4-0.8-4-2.4-5.6c-3.2-3.2-8-3.2-11.2,0c-1.6,1.6-2.4,3.2-2.4,5.6L48,343.7L48,343.7z"/>
	<path style="fill:#2B2B2B;" d="M112,303.7H96v-80c0-2.4-0.8-4-2.4-5.6c-3.2-3.2-8-3.2-11.2,0c-1.6,1.6-2.4,3.2-2.4,5.6v80H64v-80
		c0-6.4,2.4-12.8,7.2-16.8c8.8-8.8,24.8-8.8,33.6,0c4.8,4.8,7.2,10.4,7.2,16.8L112,303.7L112,303.7z"/>
	<path style="fill:#2B2B2B;" d="M144,303.7h-16v-64c0-2.4-0.8-4-2.4-5.6c-3.2-3.2-8-3.2-11.2,0c-1.6,1.6-2.4,3.2-2.4,5.6v64H96v-64
		c0-6.4,2.4-12.8,7.2-16.8c8.8-8.8,24.8-8.8,33.6,0c4.8,4.8,7.2,10.4,7.2,16.8L144,303.7L144,303.7z"/>
	<path style="fill:#2B2B2B;" d="M152,447.7h-16v-25.6l24-64V255.7c0-2.4-0.8-4-2.4-5.6c-3.2-3.2-8-3.2-11.2,0
		c-1.6,1.6-2.4,3.2-2.4,5.6v48h-16v-48c0-6.4,2.4-12.8,7.2-16.8c8.8-8.8,24.8-8.8,33.6,0c4.8,4.8,7.2,10.4,7.2,16.8v105.6l-24,64
		L152,447.7L152,447.7z"/>
	<path style="fill:#2B2B2B;" d="M56,447.7H40v-20.8c-8.8-9.6-40-44.8-40-75.2v-40c0-6.4,2.4-12.8,7.2-16.8c8.8-8.8,24.8-8.8,33.6,0
		c4.8,4.8,7.2,10.4,7.2,16.8H32c0-2.4-0.8-4-2.4-5.6c-3.2-3.2-8-3.2-11.2,0c-1.6,1.6-2.4,3.2-2.4,5.6v40c0,23.2,27.2,56,37.6,66.4
		l2.4,2.4L56,447.7L56,447.7z"/>
</g>
<rect x="32" y="439.7" style="fill:#FF661A;" width="128" height="72"/>
<g>
	<rect x="56" y="455.7" style="fill:#2B2B2B;" width="16" height="16"/>
	<path style="fill:#2B2B2B;" d="M384,279.7h-16v-104c0-6.4,2.4-12.8,7.2-16.8c8.8-8.8,24.8-8.8,33.6,0c4.8,4.8,7.2,10.4,7.2,16.8v64
		h-16v-64c0-2.4-0.8-4-2.4-5.6c-3.2-3.2-8-3.2-11.2,0c-1.6,1.6-2.4,3.2-2.4,5.6L384,279.7L384,279.7z"/>
	<path style="fill:#2B2B2B;" d="M448,239.7h-16v-80c0-2.4-0.8-4-2.4-5.6c-3.2-3.2-8-3.2-11.2,0c-1.6,1.6-2.4,3.2-2.4,5.6v80h-16v-80
		c0-6.4,2.4-12.8,7.2-16.8c8.8-8.8,24.8-8.8,33.6,0c4.8,4.8,7.2,10.4,7.2,16.8L448,239.7L448,239.7z"/>
	<path style="fill:#2B2B2B;" d="M480,239.7h-16v-64c0-2.4-0.8-4-2.4-5.6c-3.2-3.2-8-3.2-11.2,0c-1.6,1.6-2.4,3.2-2.4,5.6v64h-16v-64
		c0-6.4,2.4-12.8,7.2-16.8c8.8-8.8,24.8-8.8,33.6,0c4.8,4.8,7.2,10.4,7.2,16.8L480,239.7L480,239.7z"/>
	<path style="fill:#2B2B2B;" d="M488,383.7h-16v-25.6l24-64V191.7c0-2.4-0.8-4-2.4-5.6c-3.2-3.2-8-3.2-11.2,0
		c-1.6,1.6-2.4,3.2-2.4,5.6v48h-16v-48c0-6.4,2.4-12.8,7.2-16.8c8.8-8.8,24.8-8.8,33.6,0c4.8,4.8,7.2,10.4,7.2,16.8v105.6l-24,64
		L488,383.7L488,383.7z"/>
	<path style="fill:#2B2B2B;" d="M392,383.7h-16v-20.8c-8.8-9.6-40-44.8-40-75.2v-40c0-6.4,2.4-12.8,7.2-16.8
		c8.8-8.8,24.8-8.8,33.6,0c4.8,4.8,7.2,10.4,7.2,16.8h-16c0-2.4-0.8-4-2.4-5.6c-3.2-3.2-8-3.2-11.2,0c-1.6,1.6-2.4,3.2-2.4,5.6v40
		c0,23.2,27.2,56,37.6,66.4l2.4,2.4L392,383.7L392,383.7z"/>
</g>
<rect x="368" y="375.7" style="fill:#3fb1a2;" width="128" height="136"/>
<g>
	<rect x="392" y="391.7" style="fill:#2B2B2B;" width="16" height="16"/>
	<path style="fill:#2B2B2B;" d="M208,143.7h-16v-104c0-6.4,2.4-12.8,7.2-16.8c8.8-8.8,24.8-8.8,33.6,0c4.8,4.8,7.2,10.4,7.2,16.8v64
		h-16v-64c0-2.4-0.8-4-2.4-5.6c-3.2-3.2-8-3.2-11.2,0c-1.6,1.6-2.4,3.2-2.4,5.6L208,143.7L208,143.7z"/>
	<path style="fill:#2B2B2B;" d="M272,103.7h-16v-80c0-2.4-0.8-4-2.4-5.6c-3.2-3.2-8-3.2-11.2,0c-1.6,1.6-2.4,3.2-2.4,5.6v80h-16v-80
		c0-6.4,2.4-12.8,7.2-16.8c8.8-8.8,24.8-8.8,33.6,0c4.8,4.8,7.2,10.4,7.2,16.8L272,103.7L272,103.7z"/>
	<path style="fill:#2B2B2B;" d="M304,103.7h-16v-64c0-2.4-0.8-4-2.4-5.6c-3.2-3.2-8-3.2-11.2,0c-1.6,1.6-2.4,3.2-2.4,5.6v64h-16v-64
		c0-6.4,2.4-12.8,7.2-16.8c8.8-8.8,24.8-8.8,33.6,0c4.8,4.8,7.2,10.4,7.2,16.8L304,103.7L304,103.7z"/>
	<path style="fill:#2B2B2B;" d="M312,247.7h-16v-25.6l24-64V55.7c0-2.4-0.8-4-2.4-5.6c-3.2-3.2-8-3.2-11.2,0
		c-1.6,1.6-2.4,3.2-2.4,5.6v48h-16v-48c0-6.4,2.4-12.8,7.2-16.8c8.8-8.8,24.8-8.8,33.6,0c4.8,4.8,7.2,10.4,7.2,16.8v105.6l-24,64
		L312,247.7L312,247.7z"/>
	<path style="fill:#2B2B2B;" d="M216,247.7h-16v-20.8c-8.8-9.6-40-44.8-40-75.2v-40c0-6.4,2.4-12.8,7.2-16.8
		c8.8-8.8,24.8-8.8,33.6,0c4.8,4.8,7.2,10.4,7.2,16.8h-16c0-2.4-0.8-4-2.4-5.6c-3.2-3.2-8-3.2-11.2,0c-1.6,1.6-2.4,3.2-2.4,5.6v40
		c0,23.2,27.2,56,37.6,66.4l2.4,2.4L216,247.7L216,247.7z"/>
</g>
<rect x="192" y="239.7" style="fill:#E3E3E3;" width="128" height="272"/>
<rect x="216" y="255.7" style="fill:#2B2B2B;" width="16" height="16"/>
<g>
</g>
<g>
</g>
<g>
</g>
<g>
</g>
<g>
</g>
<g>
</g>
<g>
</g>
<g>
</g>
<g>
</g>
<g>
</g>
<g>
</g>
<g>
</g>
<g>
</g>
<g>
</g>
<g>
</g>
</svg>
