<?xml version="1.0" encoding="iso-8859-1"?>
<!-- Generator: Adobe Illustrator 19.0.0, SVG Export Plug-In . SVG Version: 6.00 Build 0)  -->
<svg version="1.1" id="Layer_1" xmlns="http://www.w3.org/2000/svg" xmlns:xlink="http://www.w3.org/1999/xlink" x="0px" y="0px"
	 viewBox="0 0 512 512" style="enable-background:new 0 0 512 512;" xml:space="preserve">
<g>
	
		<rect x="382.212" y="262.321" transform="matrix(-0.7076 -0.7066 0.7066 -0.7076 460.4002 778.6486)" style="fill:#242D3C;" width="18.181" height="63.493"/>
	
		<rect x="89.004" y="284.978" transform="matrix(-0.707 -0.7072 0.7072 -0.707 -1.8505 587.3719)" style="fill:#242D3C;" width="63.487" height="18.183"/>
	
		<rect x="201.837" y="172.178" transform="matrix(-0.7069 -0.7074 0.7074 -0.7069 270.4641 474.6246)" style="fill:#242D3C;" width="63.484" height="18.182"/>
	<path style="fill:#242D3C;" d="M157.261,359.672L157.261,359.672L157.261,359.672L157.261,359.672
		c-7.744,0-15.032-3.003-20.531-8.453c-5.504-5.576-8.502-12.867-8.502-20.59c0-7.764,3.016-15.045,8.492-20.508
		c5.573-5.524,12.856-8.545,20.552-8.545c7.721,0,15.004,3.023,20.521,8.512c5.491,5.45,8.517,12.741,8.517,20.529
		c0,7.406-2.765,14.413-7.805,19.837l-0.056,0.09l-0.653,0.653C172.316,356.664,165.02,359.672,157.261,359.672z M157.284,319.762
		c-2.883,0-5.619,1.144-7.721,3.231c-2.038,2.033-3.154,4.744-3.154,7.636c0,2.911,1.132,5.66,3.197,7.747
		c1.999,1.981,4.739,3.113,7.644,3.113h0.008c2.86,0,5.537-1.08,7.572-3.046l0.09-0.09c2.068-2.086,3.203-4.833,3.203-7.734
		c0-2.9-1.116-5.614-3.149-7.629C162.883,320.906,160.156,319.762,157.284,319.762z"/>
	<path style="fill:#242D3C;" d="M185.441,387.886c-7.816,0-15.114-3.041-20.547-8.556c-5.435-5.404-8.474-12.698-8.481-20.457
		c-0.003-7.424,2.778-14.428,7.849-19.835l0.66-0.686c5.455-5.507,12.749-8.545,20.534-8.545c7.854,0.005,15.171,3.044,20.6,8.563
		c5.45,5.471,8.481,12.754,8.481,20.47c-0.003,7.375-2.767,14.344-7.803,19.75l-0.028,0.051l-0.676,0.694
		C200.591,384.845,193.283,387.886,185.441,387.886z M178.033,350.958l-0.241,0.241c-2.063,2.061-3.2,4.78-3.197,7.657
		c0,2.888,1.137,5.604,3.19,7.647c4.035,4.101,11.034,4.101,15.037,0.323l0.323-0.33c2.071-2.071,3.205-4.792,3.21-7.66
		c0-2.862-1.139-5.586-3.213-7.665C189.171,347.136,182.116,347.041,178.033,350.958z"/>
	<path style="fill:#242D3C;" d="M213.681,416.115L213.681,416.115v-9.093l-0.01,9.093c-7.711,0-14.994-3.023-20.516-8.502
		c-5.494-5.491-8.509-12.774-8.509-20.529c0.003-7.383,2.742-14.364,7.741-19.786l0.056-0.095l0.699-0.709
		c5.448-5.46,12.746-8.463,20.547-8.463c7.767,0,15.055,2.998,20.531,8.44c5.512,5.614,8.502,12.902,8.502,20.595
		c0,7.762-3.016,15.043-8.494,20.506C228.662,413.1,221.379,416.115,213.681,416.115z M206.213,379.146l-0.182,0.184
		c-2.063,2.092-3.2,4.846-3.203,7.757c0,2.89,1.121,5.606,3.154,7.642c2.076,2.053,4.813,3.197,7.685,3.197h0.013
		c2.87,0,5.604-1.142,7.698-3.22c2.045-2.038,3.162-4.746,3.162-7.634c0-2.906-1.144-5.673-3.218-7.785
		C217.439,375.424,210.243,375.327,206.213,379.146z"/>
	<path style="fill:#242D3C;" d="M241.859,444.332h-0.005c-7.729-0.003-15.002-3.028-20.495-8.512
		c-5.489-5.455-8.527-12.759-8.527-20.554s3.041-15.094,8.55-20.554c5.509-5.491,12.785-8.509,20.498-8.509
		c7.708,0,14.984,3.013,20.498,8.479c5.489,5.394,8.53,12.718,8.535,20.598c0.003,7.826-3.031,15.127-8.543,20.567
		C256.781,441.326,249.5,444.332,241.859,444.332z M241.879,404.385c-2.87,0-5.583,1.132-7.649,3.187
		c-2.089,2.076-3.218,4.787-3.218,7.693c0,2.913,1.129,5.64,3.174,7.672c4.15,4.14,11.116,4.175,15.434-0.056
		c1.997-1.974,3.11-4.677,3.108-7.593c-0.003-2.965-1.111-5.691-3.126-7.667C247.491,405.519,244.756,404.385,241.879,404.385z"/>
</g>
<g>
	<polygon style="fill:#3fb1a2;" points="154.273,60.495 0,214.799 77.568,292.37 231.841,138.068 	"/>
	<polygon style="fill:#3fb1a2;" points="512,214.812 357.734,60.5 280.177,138.074 434.432,292.385 	"/>
</g>
<g>
	<path style="fill:#242D3C;" d="M277.317,451.505c-7.695-0.005-14.981-3.013-20.523-8.468l-7.237-7.245l12.859-12.851l7.188,7.191
		c4.119,4.055,11.238,4.116,15.334,0.008c2.079-2.076,3.213-4.808,3.21-7.7c0.003-2.898-1.132-5.619-3.2-7.685L297.81,401.9
		c4.086,4.091,11.205,4.157,15.378-0.013c2.051-2.045,3.18-4.757,3.18-7.634c0-2.89-1.147-5.642-3.233-7.754l12.948-12.767
		c1.992,2.02,4.695,3.136,7.608,3.136h0.008c2.921-0.003,5.65-1.129,7.693-3.174c2.038-2.03,3.151-4.751,3.151-7.662
		c0-2.913-1.119-5.637-3.151-7.672l12.869-12.849c4.052,4.058,11.256,4.063,15.304,0.008c2.061-2.066,3.19-4.795,3.187-7.708
		c0.003-2.924-1.106-5.612-3.123-7.601l-49.879-49.905c-9.165,6.551-20.114,10.081-31.608,10.081c-0.003,0-0.003,0-0.008,0
		c-13.386,0-26.03-4.792-35.986-13.56l-26.309,26.309c-5.535,5.509-12.82,8.538-20.534,8.538c-0.008,0-0.008,0-0.02,0
		c-7.713,0-15.002-3.029-20.521-8.525c-5.489-5.463-8.509-12.744-8.509-20.506c0-7.677,2.993-14.958,8.438-20.506l109.755-109.77
		l12.856,12.854L197.609,274.929c-2.028,2.063-3.174,4.823-3.174,7.711c0,2.89,1.121,5.599,3.156,7.624
		c2.086,2.081,4.818,3.223,7.695,3.223h0.003h0.003c2.877,0,5.612-1.142,7.698-3.223l39.073-39.073l10.358,10.358
		c6.866,6.871,15.997,10.652,25.71,10.652s18.847-3.786,25.715-10.655l6.428-6.431l62.152,62.188
		c5.471,5.384,8.509,12.685,8.499,20.506c0.01,7.752-3.008,15.058-8.502,20.552c-5.261,5.279-12.234,8.269-19.715,8.471
		c-0.197,7.473-3.187,14.449-8.471,19.717c-5.271,5.279-12.244,8.276-19.704,8.486c-0.195,7.45-3.197,14.426-8.502,19.722
		c-5.317,5.307-12.293,8.312-19.717,8.515c-0.197,7.424-3.208,14.408-8.52,19.712C292.339,448.471,285.061,451.5,277.317,451.505z"
		/>
	
		<rect x="423.897" y="243.272" transform="matrix(-0.7071 -0.7071 0.7071 -0.7071 560.7093 736.9786)" style="fill:#242D3C;" width="18.181" height="18.181"/>
	
		<rect x="69.945" y="243.247" transform="matrix(-0.707 -0.7072 0.7072 -0.707 -43.5374 486.6368)" style="fill:#242D3C;" width="18.184" height="18.181"/>
</g>
<g>
</g>
<g>
</g>
<g>
</g>
<g>
</g>
<g>
</g>
<g>
</g>
<g>
</g>
<g>
</g>
<g>
</g>
<g>
</g>
<g>
</g>
<g>
</g>
<g>
</g>
<g>
</g>
<g>
</g>
</svg>
