<?xml version="1.0" encoding="iso-8859-1"?>
<!-- Generator: Adobe Illustrator 19.0.0, SVG Export Plug-In . SVG Version: 6.00 Build 0)  -->
<svg version="1.1" id="Layer_1" xmlns="http://www.w3.org/2000/svg" xmlns:xlink="http://www.w3.org/1999/xlink" x="0px" y="0px"
	 viewBox="0 0 512 512" style="enable-background:new 0 0 512 512;" xml:space="preserve">
<path style="fill:#242D3C;" d="M256.008,493.167L45.34,282.492C16.108,253.324,0,214.514,0,173.208
	C0,88.086,69.258,18.833,154.383,18.833c37.778,0,73.482,13.476,101.624,38.149c28.15-24.676,63.849-38.149,101.617-38.149
	C442.749,18.833,512,88.086,512,173.208c0,41.257-16.056,80.028-45.207,109.171L256.008,493.167z M154.383,40.165
	c-73.367,0-133.051,59.684-133.051,133.043c0,35.599,13.878,69.051,39.084,94.19l195.592,195.594l195.699-195.702
	c25.124-25.114,38.961-58.527,38.961-94.083c0-73.359-59.684-133.043-133.043-133.043c-35.53,0-68.943,13.842-94.075,38.968
	l-7.542,7.542l-7.542-7.542C223.342,54.007,189.924,40.165,154.383,40.165z"/>
<path style="fill:#F26729;" d="M83.054,244.783c-19.18-19.133-29.719-44.541-29.719-71.575c0-55.713,45.33-101.043,101.051-101.043
	c26.99,0,52.367,10.511,71.45,29.601L256,131.933l30.17-30.162c19.092-19.087,44.472-29.604,71.455-29.604
	c55.713,0,101.043,45.33,101.043,101.043c0,27.008-10.506,52.383-29.581,71.45L256.008,417.745L83.054,244.783z"/>
<path style="fill:#FFFFFF;" d="M105.692,222.166c-13.128-13.1-20.357-30.482-20.357-48.957c0-38.067,30.976-69.043,69.051-69.043
	v21.332c-26.309,0-47.718,21.404-47.718,47.708c0,12.767,5.005,24.788,14.093,33.851L105.692,222.166z"/>
<g>
</g>
<g>
</g>
<g>
</g>
<g>
</g>
<g>
</g>
<g>
</g>
<g>
</g>
<g>
</g>
<g>
</g>
<g>
</g>
<g>
</g>
<g>
</g>
<g>
</g>
<g>
</g>
<g>
</g>
</svg>
