<?xml version="1.0" encoding="iso-8859-1"?>
<!-- Generator: Adobe Illustrator 19.0.0, SVG Export Plug-In . SVG Version: 6.00 Build 0)  -->
<svg version="1.1" id="Layer_1" xmlns="http://www.w3.org/2000/svg" xmlns:xlink="http://www.w3.org/1999/xlink" x="0px" y="0px"
	 viewBox="0 0 512 512" style="enable-background:new 0 0 512 512;" xml:space="preserve">
<path style="fill:#3fb1a2;" d="M347.325,217.678H164.669v-56.069c0-11.661,4.436-23.329,13.394-32.266
	c8.888-8.909,20.57-13.389,32.274-13.389h91.302c11.686,0,23.345,4.48,32.31,13.389c8.945,8.937,13.376,20.605,13.376,32.266
	L347.325,217.678L347.325,217.678z"/>
<g>
	<rect x="201.318" y="168.621" style="fill:#242D3C;" width="18.022" height="49.05"/>
	<rect x="292.634" y="168.621" style="fill:#242D3C;" width="18.022" height="49.05"/>
</g>
<path style="fill:#3fb1a2;" d="M301.64,54.212c0,25.203-20.388,45.665-45.64,45.665c-25.219,0-45.663-20.462-45.663-45.665
	c0-25.198,20.444-45.663,45.663-45.663C281.252,8.549,301.64,29.014,301.64,54.212z"/>
<g>
	<path style="fill:#242D3C;" d="M442.486,327.195h-18.028c0-9.142-3.551-17.71-9.992-24.115c-6.456-6.484-15.017-10.04-24.141-10.04
		H121.69c-9.126,0-17.697,3.556-24.133,10.012c-6.464,6.451-10.022,15.017-10.022,24.143H69.507c0-13.949,5.437-27.052,15.304-36.89
		c9.823-9.856,22.93-15.293,36.879-15.293h268.636c13.949,0,27.046,5.44,36.884,15.314
		C437.051,300.108,442.486,313.212,442.486,327.195z"/>
	<rect x="246.989" y="238.772" style="fill:#242D3C;" width="18.022" height="88.422"/>
	<path style="fill:#242D3C;" d="M104.835,486.184c-0.476-3.154-1.912-6.003-4.152-8.243c-2.76-2.757-6.428-4.275-10.337-4.275
		H66.711c-3.904,0-7.572,1.518-10.332,4.278c-2.26,2.258-3.689,5.1-4.14,8.212l-17.846-2.578c1.011-6.989,4.206-13.345,9.231-18.381
		c6.17-6.17,14.367-9.559,23.086-9.559h23.634c8.719,0,16.914,3.389,23.086,9.551c4.982,4.984,8.174,11.31,9.229,18.294
		L104.835,486.184z"/>
	<path style="fill:#242D3C;" d="M78.52,453.797c-15.916,0-28.867-12.948-28.867-28.861c0-15.918,12.951-28.872,28.867-28.872
		c15.923,0,28.877,12.956,28.877,28.872C107.397,440.849,94.444,453.797,78.52,453.797z M78.52,414.089
		c-5.972,0-10.839,4.861-10.839,10.844c0,5.975,4.867,10.834,10.839,10.834c5.983,0,10.849-4.859,10.849-10.834
		C89.37,418.95,84.503,414.089,78.52,414.089z"/>
	<path style="fill:#242D3C;" d="M78.52,503.451C35.226,503.451,0,468.225,0,424.933c0-43.297,35.226-78.525,78.52-78.525
		c43.302,0,78.536,35.228,78.536,78.525C157.056,468.225,121.823,503.451,78.52,503.451z M78.52,364.438
		c-33.357,0-60.493,27.141-60.493,60.495s27.136,60.49,60.493,60.49c33.362,0,60.508-27.136,60.508-60.49
		S111.885,364.438,78.52,364.438z"/>
	<path style="fill:#242D3C;" d="M282.307,486.184c-0.481-3.154-1.912-6.008-4.152-8.246c-2.752-2.749-6.426-4.273-10.33-4.273
		h-23.634c-3.912,0-7.585,1.518-10.348,4.278c-2.243,2.255-3.679,5.1-4.129,8.215l-17.838-2.583
		c1.006-6.986,4.196-13.343,9.219-18.371c6.177-6.177,14.374-9.567,23.099-9.567h23.634c8.709,0,16.906,3.389,23.078,9.549
		c4.984,4.992,8.166,11.313,9.226,18.294L282.307,486.184z"/>
	<path style="fill:#242D3C;" d="M256,453.797c-15.923,0-28.874-12.948-28.874-28.861c0-15.918,12.951-28.872,28.874-28.872
		s28.877,12.956,28.877,28.872C284.877,440.849,271.923,453.797,256,453.797z M256,414.089c-5.978,0-10.844,4.861-10.844,10.844
		c0,5.975,4.867,10.834,10.844,10.834c5.983,0,10.847-4.859,10.847-10.834C266.847,418.95,261.983,414.089,256,414.089z"/>
	<path style="fill:#242D3C;" d="M256,503.451c-43.3,0-78.528-35.226-78.528-78.518c0-43.297,35.231-78.525,78.528-78.525
		c43.3,0,78.525,35.228,78.525,78.525C334.525,468.225,299.3,503.451,256,503.451z M256,364.438c-33.359,0-60.5,27.141-60.5,60.495
		s27.141,60.49,60.5,60.49s60.498-27.136,60.498-60.49S289.359,364.438,256,364.438z"/>
	<path style="fill:#242D3C;" d="M407.176,486.184l-17.838-2.632c1.034-6.991,4.224-13.34,9.229-18.353
		c6.182-6.17,14.38-9.559,23.094-9.559h23.631c8.732,0,16.929,3.395,23.091,9.559c4.995,4.995,8.177,11.331,9.213,18.317
		l-17.838,2.637c-0.461-3.133-1.889-5.972-4.129-8.215c-2.749-2.755-6.423-4.273-10.335-4.273h-23.631
		c-3.904,0-7.583,1.523-10.345,4.283C409.075,480.191,407.636,483.043,407.176,486.184z"/>
	<path style="fill:#242D3C;" d="M433.472,453.797c-15.923,0-28.879-12.948-28.879-28.861c0-15.918,12.959-28.872,28.879-28.872
		s28.872,12.956,28.872,28.872C462.346,440.849,449.395,453.797,433.472,453.797z M433.472,414.089
		c-5.983,0-10.852,4.861-10.852,10.844c0,5.975,4.869,10.834,10.852,10.834c5.978,0,10.844-4.859,10.844-10.834
		C444.319,418.95,439.45,414.089,433.472,414.089z"/>
	<path style="fill:#242D3C;" d="M433.472,503.451c-43.297,0-78.523-35.226-78.523-78.518c0-43.297,35.226-78.525,78.523-78.525
		c43.302,0,78.528,35.228,78.528,78.525C512,468.225,476.774,503.451,433.472,503.451z M433.472,364.438
		c-33.357,0-60.493,27.141-60.493,60.495s27.136,60.49,60.493,60.49s60.5-27.136,60.5-60.49S466.829,364.438,433.472,364.438z"/>
</g>
<g>
</g>
<g>
</g>
<g>
</g>
<g>
</g>
<g>
</g>
<g>
</g>
<g>
</g>
<g>
</g>
<g>
</g>
<g>
</g>
<g>
</g>
<g>
</g>
<g>
</g>
<g>
</g>
<g>
</g>
</svg>
