<?xml version="1.0" encoding="iso-8859-1"?>
<!-- Generator: Adobe Illustrator 19.0.0, SVG Export Plug-In . SVG Version: 6.00 Build 0)  -->
<svg version="1.1" id="Layer_1" xmlns="http://www.w3.org/2000/svg" xmlns:xlink="http://www.w3.org/1999/xlink" x="0px" y="0px"
	 viewBox="0 0 512 512" style="enable-background:new 0 0 512 512;" xml:space="preserve">
<g>
	<path style="fill:#242D3C;" d="M188.92,409.636l-30.94-130.432l29.42-18.578l75.461,86.656l-6.856,5.967l5.094,7.524
		L188.92,409.636z M178.68,287.642l21.86,92.163l41.851-28.332l-58.465-67.141L178.68,287.642z"/>
	<path style="fill:#242D3C;" d="M323.08,409.636L250.9,360.773l5.094-7.524l-6.858-5.967l75.453-86.656l29.422,18.578
		L323.08,409.636z M269.606,351.473l41.853,28.332l21.855-92.155l-5.248-3.318L269.606,351.473z"/>
	<polygon style="fill:#242D3C;" points="271.816,418.327 240.189,418.327 220.818,374.694 237.445,367.309 252.014,400.136 
		259.983,400.136 274.55,367.309 291.18,374.687 	"/>
	<polygon style="fill:#242D3C;" points="287.414,512 259.146,418.312 252.854,418.312 224.586,512 207.171,506.749 239.337,400.12 
		272.666,400.12 304.829,506.749 	"/>
	<polygon style="fill:#242D3C;" points="432.084,490.363 416.187,338.621 337.444,301.565 345.19,285.107 433.216,326.531 
		450.179,488.466 	"/>
	<polygon style="fill:#242D3C;" points="79.916,490.363 61.821,488.466 78.784,326.531 166.81,285.107 174.556,301.565 
		95.813,338.621 	"/>
	<rect x="323.302" y="431.77" style="fill:#242D3C;" width="58.214" height="18.191"/>
</g>
<path style="fill:#3fb1a2;" d="M255.987,0c-55.081,0.015-99.722,44.652-99.722,99.735c0,29.171,12.544,55.434,32.499,73.677
	c0.952,0.796,1.912,1.626,2.893,2.486c15.565,14.221,25.354,34.642,25.354,57.38h77.957c0-22.738,9.746-43.159,25.372-57.38
	c0.986-0.86,1.915-1.692,2.849-2.486c19.932-18.243,32.55-44.506,32.55-73.677C355.74,44.652,311.096,0.015,255.987,0z"/>
<g>
	<polygon style="fill:#FFFFFF;" points="255.826,33.137 255.826,105.521 224.52,105.521 	"/>
	<polygon style="fill:#FFFFFF;" points="255.826,166.313 255.826,93.921 287.094,93.921 	"/>
</g>
<g>
	<rect x="208.845" y="224.179" style="fill:#242D3C;" width="94.305" height="18.191"/>
	<rect x="208.845" y="253.184" style="fill:#242D3C;" width="94.305" height="18.189"/>
	<rect x="234.24" y="282.214" style="fill:#242D3C;" width="43.502" height="18.191"/>
</g>
<g>
</g>
<g>
</g>
<g>
</g>
<g>
</g>
<g>
</g>
<g>
</g>
<g>
</g>
<g>
</g>
<g>
</g>
<g>
</g>
<g>
</g>
<g>
</g>
<g>
</g>
<g>
</g>
<g>
</g>
</svg>
