<?xml version="1.0" encoding="iso-8859-1"?>
<!-- Generator: Adobe Illustrator 19.0.0, SVG Export Plug-In . SVG Version: 6.00 Build 0)  -->
<svg xmlns="http://www.w3.org/2000/svg" xmlns:xlink="http://www.w3.org/1999/xlink" version="1.1" id="Capa_1" x="0px" y="0px" viewBox="0 0 512.169 512.169" style="enable-background:new 0 0 512.169 512.169;" xml:space="preserve">
<path style="fill:#403E3E;" d="M330.798,394.796h-21.342c0-22.079,0-47.097,35.137-82.235  c18.652-18.652,50.227-62.78,50.227-109.837c0-76.479-62.231-138.703-138.714-138.703c-76.49,0-138.714,62.223-138.714,138.703  c0,47.057,31.573,91.186,50.225,109.837c35.137,35.138,35.137,60.157,35.137,82.235h-21.342c0-20.527,0-38.26-28.885-67.146  c-26.054-26.05-56.477-74.405-56.477-124.926c0-88.248,71.801-160.044,160.053-160.044c88.258,0,160.052,71.794,160.052,160.044  c0,50.522-30.428,98.876-56.477,124.926C330.798,356.536,330.798,374.27,330.798,394.796z"/>
<rect x="181.417" y="394.795" style="fill:#F26729;" width="149.385" height="74.692"/>
<g>
	<rect x="170.744" y="384.128" style="fill:#403E3E;" width="32.013" height="21.34"/>
	<rect x="170.744" y="426.808" style="fill:#403E3E;" width="32.013" height="21.34"/>
	<rect x="224.096" y="384.128" style="fill:#403E3E;" width="117.372" height="21.34"/>
	<rect x="224.096" y="426.808" style="fill:#403E3E;" width="117.372" height="21.34"/>
	<path style="fill:#403E3E;" d="M288.115,512.169h-64.021c-5.7,0-11.057-2.218-15.088-6.254c-4.037-4.042-6.251-9.397-6.251-15.086   v-21.341h21.34v21.341h64.021v-21.341h21.34v21.341c0,5.699-2.22,11.056-6.252,15.086   C299.17,509.948,293.815,512.169,288.115,512.169z"/>
	<rect x="245.436" style="fill:#403E3E;" width="21.34" height="21.34"/>
	
		<rect x="295.154" y="6.539" transform="matrix(0.9659 0.2588 -0.2588 0.9659 14.8736 -78.5631)" style="fill:#403E3E;" width="21.339" height="21.339"/>
	
		<rect x="341.471" y="25.731" transform="matrix(0.8661 0.4999 -0.4999 0.8661 65.353 -171.1599)" style="fill:#403E3E;" width="21.347" height="21.34"/>
	
		<rect x="381.242" y="56.282" transform="matrix(0.7069 0.7073 -0.7073 0.7069 162.2297 -257.5785)" style="fill:#403E3E;" width="21.346" height="21.359"/>
	<polygon style="fill:#403E3E;" points="418.533,121.295 407.865,102.82 426.327,92.149 436.996,110.625  "/>
	<polygon style="fill:#403E3E;" points="434.08,166.122 428.537,145.511 449.147,139.973 454.692,160.585  "/>
	<polygon style="fill:#403E3E;" points="437.496,213.435 437.479,192.095 458.818,192.084 458.839,213.425  "/>
	<polygon style="fill:#403E3E;" points="198.852,30.281 193.324,9.663 213.934,4.142 219.463,24.758  "/>
	
		<rect x="149.399" y="25.725" transform="matrix(0.5 0.866 -0.866 0.5 111.5514 -120.4254)" style="fill:#403E3E;" width="21.339" height="21.339"/>
	
		<rect x="109.603" y="56.25" transform="matrix(0.7071 0.7071 -0.7071 0.7071 82.5485 -65.4499)" style="fill:#403E3E;" width="21.352" height="21.34"/>
	
		<rect x="79.066" y="96.031" transform="matrix(0.8663 0.4996 -0.4996 0.8663 65.3078 -30.5661)" style="fill:#403E3E;" width="21.36" height="21.341"/>
	
		<rect x="59.877" y="142.368" transform="matrix(0.9661 0.2583 -0.2583 0.9661 41.9236 -13.0319)" style="fill:#403E3E;" width="21.366" height="21.347"/>
	
		<rect x="53.35" y="192.061" transform="matrix(9.899995e-004 1 -1 9.899995e-004 266.697 138.5191)" style="fill:#403E3E;" width="21.34" height="21.359"/>
</g>
<path style="fill:#3fb1a2;" d="M256.105,96.032c58.935,0,106.701,47.771,106.701,106.701s-47.765,106.701-106.701,106.701  c-58.932,0-106.702-47.771-106.702-106.701C149.404,143.802,197.174,96.032,256.105,96.032z"/>
<path style="fill:#403E3E;" d="M256.105,245.414c-23.533,0-42.68-19.147-42.68-42.68s19.147-42.68,42.68-42.68  c23.538,0,42.681,19.147,42.681,42.68C298.788,226.267,279.643,245.414,256.105,245.414z M256.105,181.392  c-11.771,0-21.34,9.571-21.34,21.34c0,11.769,9.57,21.341,21.34,21.341c11.77,0,21.34-9.572,21.34-21.341  C277.446,190.965,267.875,181.392,256.105,181.392z"/>
<g>
	<circle style="fill:#FFFFFF;" cx="224.096" cy="170.724" r="32.013"/>
	<circle style="fill:#FFFFFF;" cx="224.096" cy="234.744" r="10.67"/>
</g>
<g>
</g>
<g>
</g>
<g>
</g>
<g>
</g>
<g>
</g>
<g>
</g>
<g>
</g>
<g>
</g>
<g>
</g>
<g>
</g>
<g>
</g>
<g>
</g>
<g>
</g>
<g>
</g>
<g>
</g>
</svg>
