<?xml version="1.0" encoding="iso-8859-1"?>
<!-- Generator: Adobe Illustrator 19.0.0, SVG Export Plug-In . SVG Version: 6.00 Build 0)  -->
<svg version="1.1" id="Layer_1" xmlns="http://www.w3.org/2000/svg" xmlns:xlink="http://www.w3.org/1999/xlink" x="0px" y="0px"
	 viewBox="0 0 512 512" style="enable-background:new 0 0 512 512;" xml:space="preserve">
<g>
	<path style="fill:#242D3C;" d="M469.368,268.28h-99.402c-11.384,0-22.095-4.434-30.144-12.488
		c-8.054-8.049-12.488-18.755-12.488-30.144c0-11.384,4.434-22.09,12.488-30.144c8.051-8.054,18.76-12.488,30.144-12.488h99.402
		c11.387,0,22.09,4.436,30.144,12.488c8.054,8.054,12.488,18.76,12.488,30.144c0,11.389-4.434,22.095-12.488,30.144
		C491.459,263.844,480.755,268.28,469.368,268.28z M369.966,202.557c-6.167,0-11.965,2.404-16.328,6.764
		c-4.362,4.367-6.764,10.161-6.764,16.328c0,6.17,2.401,11.971,6.764,16.328c4.362,4.362,10.161,6.764,16.328,6.764h99.402
		c6.167,0,11.965-2.401,16.328-6.764c4.357-4.36,6.764-10.161,6.764-16.328c0-6.167-2.404-11.96-6.764-16.328
		c-4.362-4.36-10.161-6.764-16.328-6.764H369.966z"/>
	<path style="fill:#242D3C;" d="M450.77,334.006h-80.804c-11.384,0-22.095-4.434-30.144-12.488
		c-8.054-8.049-12.488-18.757-12.488-30.147c0-11.379,4.434-22.09,12.488-30.144c8.051-8.051,18.76-12.485,30.144-12.485h80.804
		c11.389,0,22.093,4.434,30.144,12.485c8.054,8.054,12.49,18.765,12.49,30.144c0,11.389-4.434,22.1-12.49,30.147
		C472.863,329.569,462.159,334.006,450.77,334.006z M369.966,268.28c-6.167,0-11.965,2.404-16.328,6.764
		c-4.362,4.367-6.764,10.161-6.764,16.328c0,6.17,2.401,11.971,6.764,16.33c4.362,4.365,10.161,6.764,16.328,6.764h80.804
		c6.17,0,11.968-2.399,16.33-6.764c4.357-4.36,6.763-10.161,6.763-16.33c0-6.167-2.404-11.96-6.763-16.328
		c-4.362-4.357-10.161-6.764-16.33-6.764H369.966z"/>
	<path style="fill:#242D3C;" d="M432.573,399.731h-62.607c-11.384,0-22.095-4.434-30.144-12.488
		c-8.054-8.049-12.488-18.757-12.488-30.144c0-11.382,4.434-22.093,12.488-30.144c8.051-8.054,18.76-12.49,30.144-12.49h62.607
		c11.382,0,22.093,4.434,30.141,12.49c8.054,8.054,12.488,18.762,12.488,30.144c0,11.387-4.434,22.098-12.488,30.144
		C454.666,395.295,443.955,399.731,432.573,399.731z M369.966,334.006c-6.167,0-11.965,2.404-16.328,6.764
		c-4.362,4.367-6.764,10.161-6.764,16.33c0,6.167,2.401,11.968,6.764,16.328c4.362,4.365,10.161,6.764,16.328,6.764h62.607
		c6.164,0,11.963-2.399,16.325-6.764c4.362-4.36,6.763-10.161,6.763-16.328c0-6.17-2.401-11.963-6.763-16.33
		c-4.362-4.357-10.161-6.764-16.325-6.764H369.966z"/>
	<path style="fill:#242D3C;" d="M414.336,465.454h-44.37c-11.384,0-22.095-4.434-30.144-12.488
		c-8.054-8.049-12.488-18.757-12.488-30.144c0-11.382,4.434-22.093,12.488-30.144c8.051-8.054,18.76-12.49,30.144-12.49h44.37
		c11.389,0,22.093,4.434,30.144,12.49c8.054,8.054,12.49,18.762,12.49,30.144c0,11.387-4.434,22.098-12.49,30.144
		C436.426,461.02,425.725,465.454,414.336,465.454z M369.966,399.731c-6.167,0-11.965,2.404-16.328,6.764
		c-4.362,4.367-6.764,10.161-6.764,16.33c0,6.167,2.401,11.968,6.764,16.328c4.362,4.367,10.161,6.764,16.328,6.764h44.37
		c6.17,0,11.968-2.396,16.33-6.764c4.357-4.36,6.764-10.161,6.764-16.328c0-6.17-2.404-11.963-6.764-16.33
		c-4.362-4.357-10.161-6.764-16.33-6.764H369.966z"/>
	<rect x="132.385" y="445.873" style="fill:#242D3C;" width="237.594" height="19.543"/>
	<path style="fill:#242D3C;" d="M369.966,202.552h-62.605c-3.42,0-6.597-1.789-8.366-4.718c-1.764-2.929-1.876-6.569-0.284-9.595
		c7.311-13.934,13.11-29.12,16.755-43.904c3.699-14.991,5.573-30.428,5.573-45.87v-20.48c0-6.172-2.399-11.948-6.748-16.266
		c-4.383-4.411-10.181-6.817-16.363-6.817c-6.18,0-11.942,2.396-16.225,6.74c-4.442,4.413-6.843,10.186-6.843,16.343
		c0,16.699-2.99,30.63-10.317,48.092c-6.84,16.351-16.627,30.879-29.069,43.169c-10.785,10.616-23.345,18.903-37.34,24.648
		c-13.996,5.747-28.759,8.66-43.873,8.66h-21.875v-19.543h21.875c12.557,0,24.824-2.424,36.449-7.194
		c11.64-4.78,22.083-11.674,31.045-20.488c10.58-10.455,18.918-22.84,24.763-36.808c6.333-15.086,8.799-26.452,8.799-40.535
		c0-11.402,4.454-22.103,12.539-30.134c7.913-8.026,18.616-12.493,30.072-12.493c11.423,0,22.139,4.452,30.18,12.539
		c8.026,7.964,12.472,18.668,12.472,30.088v20.48c0,17.019-2.068,34.028-6.139,50.55c-2.796,11.336-6.73,22.871-11.574,33.997
		h47.096v19.538H369.966z"/>
	<path style="fill:#242D3C;" d="M181.046,366.868h-17.864v-19.543h17.864c48.98,0,88.829-39.846,88.829-88.824h19.54
		C289.416,318.257,240.801,366.868,181.046,366.868z"/>
</g>
<polyline style="fill:#F26729;" points="0,171.781 132.385,171.781 132.385,476.639 0,476.639 "/>
<g>
	<rect x="85.486" y="420.273" style="fill:#FFFFFF;" width="17.587" height="19.543"/>
	<rect x="50.309" y="420.273" style="fill:#FFFFFF;" width="17.59" height="19.543"/>
</g>
<g>
</g>
<g>
</g>
<g>
</g>
<g>
</g>
<g>
</g>
<g>
</g>
<g>
</g>
<g>
</g>
<g>
</g>
<g>
</g>
<g>
</g>
<g>
</g>
<g>
</g>
<g>
</g>
<g>
</g>
</svg>
