<?xml version="1.0" encoding="iso-8859-1"?>
<!-- Generator: Adobe Illustrator 19.0.0, SVG Export Plug-In . SVG Version: 6.00 Build 0)  -->
<svg version="1.1" id="Layer_1" xmlns="http://www.w3.org/2000/svg" xmlns:xlink="http://www.w3.org/1999/xlink" x="0px" y="0px"
	 viewBox="0 0 512 512" style="enable-background:new 0 0 512 512;" xml:space="preserve">
<path style="fill:#3fb1a2;" d="M401.792,152.347v-15.201l-21.143-4.262c-0.893-6.019-2.478-11.809-4.664-17.303l16.192-14.328
	l-7.514-13.028l-20.508,6.884c-3.766-4.7-8.023-8.952-12.736-12.705l6.904-20.526l-13.076-7.539l-14.292,16.259
	c-5.499-2.163-11.292-3.735-17.301-4.636l-4.28-21.243h-15.142l-4.27,21.235c-6.016,0.896-11.807,2.476-17.308,4.636l-14.28-16.251
	l-13.12,7.539l6.935,20.547c-4.692,3.75-8.95,8-12.692,12.692l-20.521-6.892l-7.549,13.028l16.22,14.354
	c-2.158,5.489-3.735,11.259-4.621,17.272l-21.235,4.268l0.036,15.201l21.199,4.257c0.886,6.001,2.47,11.779,4.628,17.272
	l-16.228,14.326l7.549,13.066l20.521-6.93c3.743,4.692,8,8.957,12.7,12.7l-6.943,20.544l13.12,7.542l14.264-16.259
	c5.507,2.168,11.3,3.75,17.316,4.646l4.278,21.268h15.142l4.288-21.268c6.008-0.904,11.807-2.488,17.308-4.654l14.285,16.266
	l13.069-7.542l-6.912-20.526c4.713-3.753,8.978-8.01,12.744-12.71l20.508,6.922l7.514-13.066l-16.2-14.295
	c2.186-5.499,3.781-11.305,4.672-17.329L401.792,152.347z M301.734,200.124c-30.528,0-55.293-24.722-55.293-55.393
	c0-30.605,24.765-55.386,55.293-55.386c30.758,0,55.429,24.783,55.429,55.386C357.166,175.405,332.493,200.124,301.734,200.124z"/>
<g>
	<path style="fill:#2E3133;" d="M301.734,205.61c-33.513,0-60.777-27.31-60.777-60.877c0-33.564,27.264-60.872,60.777-60.872
		c33.59,0,60.915,27.308,60.915,60.872C362.65,178.3,335.324,205.61,301.734,205.61z M301.734,94.831
		c-27.464,0-49.807,22.385-49.807,49.9c0,27.52,22.344,49.907,49.807,49.907c27.54,0,49.943-22.385,49.943-49.907
		C351.677,117.219,329.275,94.831,301.734,94.831z"/>
	<rect x="296.32" y="112.603" style="fill:#2E3133;" width="10.97" height="42.857"/>
	<rect x="296.32" y="166.176" style="fill:#2E3133;" width="10.97" height="10.714"/>
</g>
<g>
	<circle style="fill:#C1CED4;" cx="441.165" cy="98.525" r="23.117"/>
	<path style="fill:#C1CED4;" d="M198.221,196.538c0-16.768-13.586-30.364-30.356-30.364c-16.755,0-30.356,13.596-30.356,30.364
		s13.601,30.354,30.356,30.354C184.637,226.891,198.221,213.308,198.221,196.538z"/>
</g>
<g>
	<path style="fill:#2E3133;" d="M301.801,284.169c-76.879,0-139.42-62.543-139.42-139.423c0-76.874,62.543-139.418,139.42-139.418
		c76.874,0,139.415,62.543,139.415,139.418C441.216,221.626,378.675,284.169,301.801,284.169z M301.801,16.301
		c-70.828,0-128.451,57.62-128.451,128.445c0,70.828,57.62,128.451,128.451,128.451c70.825,0,128.443-57.62,128.443-128.451
		C430.241,73.921,372.626,16.301,301.801,16.301z"/>
	<rect x="296.32" y="278.678" style="fill:#2E3133;" width="10.97" height="39.288"/>
</g>
<rect x="280.371" y="317.974" style="fill:#F26729;" width="42.854" height="171.43"/>
<g>
	<rect x="269.645" y="328.547" style="fill:#2E3133;" width="64.282" height="10.97"/>
	<rect x="269.645" y="349.974" style="fill:#2E3133;" width="64.282" height="10.972"/>
	<path style="fill:#2E3133;" d="M158.935,257.253v42.857h42.857v-42.857H158.935z M190.822,289.138h-20.915v-20.915h20.913v20.915
		H190.822z"/>
</g>
<rect y="257.251" style="fill:#F26729;" width="158.925" height="42.857"/>
<rect x="18.307" y="273.199" style="fill:#FFFFFF;" width="122.322" height="10.972"/>
<g>
	<rect x="18.307" y="316.054" style="fill:#2E3133;" width="122.322" height="10.97"/>
	<rect x="79.462" y="337.481" style="fill:#2E3133;" width="122.33" height="10.972"/>
	<rect x="79.462" y="358.908" style="fill:#2E3133;" width="122.33" height="10.97"/>
	<rect x="79.462" y="380.335" style="fill:#2E3133;" width="122.33" height="10.972"/>
	<rect x="79.462" y="401.763" style="fill:#2E3133;" width="122.33" height="10.97"/>
	<rect x="79.462" y="423.19" style="fill:#2E3133;" width="122.33" height="10.972"/>
	<rect x="79.462" y="444.617" style="fill:#2E3133;" width="122.33" height="10.972"/>
</g>
<g>
	<rect x="310.733" y="453.091" style="fill:#C1CED4;" width="25.001" height="53.571"/>
	<rect x="348.39" y="410.876" style="fill:#C1CED4;" width="25.001" height="95.775"/>
	<rect x="386.022" y="368.687" style="fill:#C1CED4;" width="25.001" height="137.981"/>
	<rect x="423.68" y="326.473" style="fill:#C1CED4;" width="25.001" height="180.198"/>
	<rect x="461.312" y="284.284" style="fill:#C1CED4;" width="25.001" height="222.387"/>
</g>
<path style="fill:#2E3133;" d="M404.472,305.532c-9.915,0-17.979-8.067-17.979-17.984c0-9.917,8.064-17.984,17.979-17.984
	c9.92,0,17.992,8.067,17.992,17.984C422.464,297.466,414.392,305.532,404.472,305.532z M404.472,280.531
	c-3.866,0-7.007,3.146-7.007,7.014s3.144,7.014,7.007,7.014c3.871,0,7.02-3.146,7.02-7.014S408.343,280.531,404.472,280.531z"/>
<path style="fill:#3fb1a2;" d="M512,190.877c0-19.553-15.849-35.418-35.415-35.418c-19.558,0-35.412,15.864-35.412,35.418
	c0,19.561,15.854,35.418,35.413,35.418C496.151,226.295,512,210.438,512,190.877z"/>
<path style="fill:#2E3133;" d="M112.207,153.804c-12.872,0-23.345-10.47-23.345-23.345c0-12.872,10.473-23.342,23.345-23.342
	c12.874,0,23.35,10.47,23.35,23.342C135.557,143.333,125.082,153.804,112.207,153.804z M112.207,118.089
	c-6.822,0-12.372,5.55-12.372,12.372s5.55,12.372,12.372,12.372c6.825,0,12.378-5.55,12.378-12.372
	C124.588,123.639,119.032,118.089,112.207,118.089z"/>
<rect x="310.733" y="453.091" style="fill:#BC452A;" width="12.5" height="36.306"/>
<g>
	<rect x="280.371" y="328.547" style="fill:#2D110A;" width="42.854" height="10.97"/>
	<rect x="280.371" y="349.974" style="fill:#2D110A;" width="42.854" height="10.972"/>
</g>
<g>
	<path style="fill:#23282A;" d="M425.859,81.258c-3.251,2.883-5.678,6.659-6.897,10.952c3.53,7.839,6.295,16.084,8.2,24.658
		c3.41,2.609,7.557,4.291,12.086,4.664C436.844,107.255,432.261,93.718,425.859,81.258z"/>
	<path style="fill:#23282A;" d="M175.345,167.144c-2.399-0.609-4.895-0.968-7.48-0.968c-1.285,0-2.545,0.108-3.789,0.261
		c3.141,20.019,10.568,38.625,21.292,54.879c3.09-2.186,5.755-4.923,7.841-8.084C184.466,199.415,178.294,183.835,175.345,167.144z"
		/>
</g>
<path style="fill:#12282B;" d="M301.734,83.859c-33.513,0-60.777,27.308-60.777,60.872c0,33.567,27.264,60.877,60.777,60.877
	c33.59,0,60.915-27.31,60.915-60.877C362.65,111.167,335.324,83.859,301.734,83.859z M301.734,200.124
	c-30.528,0-55.293-24.722-55.293-55.393c0-30.605,24.765-55.386,55.293-55.386c30.758,0,55.429,24.783,55.429,55.386
	C357.166,175.405,332.493,200.124,301.734,200.124z"/>
<g>
</g>
<g>
</g>
<g>
</g>
<g>
</g>
<g>
</g>
<g>
</g>
<g>
</g>
<g>
</g>
<g>
</g>
<g>
</g>
<g>
</g>
<g>
</g>
<g>
</g>
<g>
</g>
<g>
</g>
</svg>
