<?xml version="1.0" encoding="iso-8859-1"?>
<!-- Generator: Adobe Illustrator 19.0.0, SVG Export Plug-In . SVG Version: 6.00 Build 0)  -->
<svg version="1.1" id="Layer_1" xmlns="http://www.w3.org/2000/svg" xmlns:xlink="http://www.w3.org/1999/xlink" x="0px" y="0px"
	 viewBox="0 0 512 512" style="enable-background:new 0 0 512 512;" xml:space="preserve">
<path style="fill:#3fb1a2;" d="M255.997,0C114.609,0,0.003,114.614,0.003,256.003S114.609,512,255.997,512s256-114.609,256-255.997
	C511.995,114.614,397.384,0,255.997,0z M255.997,472.62c-119.631,0-216.614-96.983-216.614-216.617
	c0-119.631,96.983-216.614,216.614-216.614s216.614,96.983,216.614,216.614C472.609,375.636,375.626,472.62,255.997,472.62z"/>
<path style="fill:#F26729;" d="M256,39.388v187.075c16.307,0,29.535,13.225,29.535,29.54h187.075
	C472.609,136.371,375.626,39.388,256,39.388z"/>
<g>
	<path style="fill:#242D3C;" d="M255.997,483.026c-125.179,0-227.021-101.845-227.021-227.023S130.816,28.982,255.997,28.982
		s227.021,101.839,227.021,227.021C483.018,381.179,381.176,483.026,255.997,483.026z M255.997,49.795
		c-113.705,0-206.208,92.503-206.208,206.208c0,113.708,92.503,206.211,206.208,206.211s206.208-92.503,206.208-206.211
		C462.205,142.298,369.7,49.795,255.997,49.795z"/>
	<path style="fill:#242D3C;" d="M255.997,389.494c-73.603,0-133.484-59.884-133.484-133.491c0-73.6,59.878-133.489,133.484-133.489
		s133.489,59.889,133.489,133.489C389.486,329.61,329.6,389.494,255.997,389.494z M255.997,143.327
		c-62.124,0-112.666,50.547-112.666,112.676c0,62.126,50.545,112.678,112.666,112.678c62.131,0,112.676-50.552,112.676-112.678
		C368.673,193.874,318.129,143.327,255.997,143.327z"/>
	<path style="fill:#242D3C;" d="M255.997,295.944c-22.024,0-39.946-17.915-39.946-39.941c0-22.024,17.923-39.946,39.946-39.946
		c22.029,0,39.946,17.923,39.946,39.946C295.944,278.026,278.024,295.944,255.997,295.944z M255.997,236.869
		c-10.552,0-19.128,8.584-19.128,19.133c0,10.552,8.579,19.128,19.128,19.128s19.133-8.576,19.133-19.128
		C275.131,245.453,266.547,236.869,255.997,236.869z"/>
	<rect x="245.604" style="fill:#242D3C;" width="20.813" height="226.458"/>
	<rect x="245.604" y="285.542" style="fill:#242D3C;" width="20.813" height="226.458"/>
	<rect x="0.003" y="245.606" style="fill:#242D3C;" width="226.458" height="20.81"/>
	<rect x="285.54" y="245.606" style="fill:#242D3C;" width="226.458" height="20.81"/>
</g>
<g>
	<path style="fill:#F26729;" d="M220.495,203.098c0,9.423-7.644,17.062-17.068,17.062c-9.421,0-17.062-7.639-17.062-17.062
		c0-9.434,7.642-17.073,17.062-17.073C212.851,186.028,220.495,193.664,220.495,203.098z"/>
	<path style="fill:#F26729;" d="M104.53,321.326c0,4.723-3.82,8.527-8.532,8.527s-8.532-3.804-8.532-8.527
		c0-4.713,3.82-8.525,8.532-8.525S104.53,316.613,104.53,321.326z"/>
</g>
<g>
	<path style="fill:#FFFFFF;" d="M415.549,175.414c0,7.078-5.729,12.8-12.803,12.8c-7.076,0-12.8-5.722-12.8-12.8
		c0-7.068,5.724-12.8,12.8-12.8C409.82,162.614,415.549,168.346,415.549,175.414z"/>
	<circle style="fill:#FFFFFF;" cx="304.765" cy="190.515" r="6.4"/>
</g>
<path style="fill:#F26729;" d="M320.003,419.656c0,7.068-5.729,12.79-12.8,12.79c-7.073,0-12.803-5.722-12.803-12.79
	c0-7.071,5.729-12.81,12.803-12.81C314.273,406.845,320.003,412.585,320.003,419.656z"/>
<g>
</g>
<g>
</g>
<g>
</g>
<g>
</g>
<g>
</g>
<g>
</g>
<g>
</g>
<g>
</g>
<g>
</g>
<g>
</g>
<g>
</g>
<g>
</g>
<g>
</g>
<g>
</g>
<g>
</g>
</svg>
