<?xml version="1.0" encoding="iso-8859-1"?>
<!-- Generator: Adobe Illustrator 19.0.0, SVG Export Plug-In . SVG Version: 6.00 Build 0)  -->
<svg xmlns="http://www.w3.org/2000/svg" xmlns:xlink="http://www.w3.org/1999/xlink" version="1.1" id="Capa_1" x="0px" y="0px" viewBox="0 0 512.003 512.003" style="enable-background:new 0 0 512.003 512.003;" xml:space="preserve">
<path style="fill:#403E3E;" d="M405.335,512h-21.332v-85.333c0-42.49,14.666-76.573,30.197-112.668  c16.615-38.625,33.802-78.557,33.802-132.667c0-88.224-71.771-160-160-160c-88.224,0-160,71.776-160,160v2.719L65.486,298.667  h62.516v74.667c0,5.698,2.218,11.052,6.25,15.084c4.031,4.031,9.391,6.25,15.084,6.25h53.333V512h-21.333v-95.999h-32.001  c-11.396,0-22.109-4.437-30.166-12.5c-8.063-8.062-12.5-18.77-12.5-30.166v-53.333H42.668v-24.052l64.021-117.374  C108.169,79.855,188.934,0,288.002,0c99.99,0,181.333,81.344,181.333,181.333c0,58.505-18.885,102.385-35.541,141.104  c-14.636,34.01-28.459,66.135-28.459,104.229L405.335,512L405.335,512z"/>
<rect x="256.003" y="362.668" style="fill:#F26729;" width="63.998" height="149.335"/>
<path style="fill:#403E3E;" d="M288.002,320.001c-76.463,0-138.667-62.203-138.667-138.667S211.539,42.668,288.002,42.668  c76.459,0,138.667,62.203,138.667,138.667C426.668,257.798,364.46,320.001,288.002,320.001z M288.002,64  c-64.697,0-117.333,52.635-117.333,117.333s52.636,117.333,117.333,117.333c64.698,0,117.333-52.635,117.333-117.333  S352.7,64,288.002,64z"/>
<circle style="fill:#3fb1a2;" cx="288.003" cy="181.334" r="95.997"/>
<g>
	<rect x="277.333" y="309.331" style="fill:#403E3E;" width="21.333" height="53.329"/>
	<rect x="245.334" y="351.999" style="fill:#403E3E;" width="85.337" height="21.333"/>
	<rect x="245.334" y="394.667" style="fill:#403E3E;" width="85.337" height="21.333"/>
</g>
<polygon style="fill:#FFFFFF;" points="277.335,217.75 237.794,178.209 252.877,163.125 277.335,187.583 323.127,141.792   338.211,156.876 "/>
<g>
</g>
<g>
</g>
<g>
</g>
<g>
</g>
<g>
</g>
<g>
</g>
<g>
</g>
<g>
</g>
<g>
</g>
<g>
</g>
<g>
</g>
<g>
</g>
<g>
</g>
<g>
</g>
<g>
</g>
</svg>
