<?xml version="1.0" encoding="iso-8859-1"?>
<!-- Generator: Adobe Illustrator 19.0.0, SVG Export Plug-In . SVG Version: 6.00 Build 0)  -->
<svg version="1.1" id="Layer_1" xmlns="http://www.w3.org/2000/svg" xmlns:xlink="http://www.w3.org/1999/xlink" x="0px" y="0px"
	 viewBox="0 0 512 512" style="enable-background:new 0 0 512 512;" xml:space="preserve">
<path style="fill:#242D3C;" d="M256.01,512l-3.11-1.08C131.284,468.705,49.574,353.841,49.574,225.111V102.579h9.472
	c51.351,0,93.123-41.772,93.123-93.107V0h207.718v9.472c0,51.336,41.748,93.11,93.069,93.11h9.469v122.532
	c0,128.735-81.705,243.592-203.315,285.809L256.01,512z M68.518,121.121v103.992c0,119.57,75.2,226.381,187.494,266.816
	c112.279-40.435,187.476-147.236,187.476-266.816V121.121c-54.226-4.562-97.59-47.933-102.149-102.18H170.716
	C166.154,73.188,122.77,116.559,68.518,121.121z"/>
<path style="fill:#3fb1a2;" d="M320.622,43.569H191.429c-12.375,48.018-50.263,85.901-98.286,98.273v83.272
	c0,106.194,64.968,201.37,162.867,240.479c97.887-39.107,162.849-134.275,162.849-240.479v-83.277
	C370.859,129.459,332.995,91.587,320.622,43.569z M256.003,322.772c-43.948,0-79.557-35.62-79.557-79.56
	c0-43.942,35.612-79.557,79.557-79.557s79.557,35.615,79.557,79.557C335.56,287.153,299.948,322.772,256.003,322.772z"/>
<g>
	<polygon style="fill:#242D3C;" points="245.54,283.128 206.733,244.314 220.127,230.925 245.54,256.338 291.884,209.997 
		305.275,223.391 	"/>
	<path style="fill:#242D3C;" d="M256.003,332.242c-49.091,0-89.027-39.944-89.027-89.029c0-49.091,39.939-89.029,89.027-89.029
		s89.027,39.939,89.027,89.029C345.029,292.301,305.093,332.242,256.003,332.242z M256.003,173.125
		c-38.646,0-70.085,31.437-70.085,70.085s31.442,70.088,70.085,70.088s70.088-31.439,70.088-70.088
		C326.09,204.564,294.648,173.125,256.003,173.125z"/>
</g>
<g>
</g>
<g>
</g>
<g>
</g>
<g>
</g>
<g>
</g>
<g>
</g>
<g>
</g>
<g>
</g>
<g>
</g>
<g>
</g>
<g>
</g>
<g>
</g>
<g>
</g>
<g>
</g>
<g>
</g>
</svg>
