<?xml version="1.0" encoding="iso-8859-1"?>
<!-- Generator: Adobe Illustrator 19.0.0, SVG Export Plug-In . SVG Version: 6.00 Build 0)  -->
<svg version="1.1" id="Layer_1" xmlns="http://www.w3.org/2000/svg" xmlns:xlink="http://www.w3.org/1999/xlink" x="0px" y="0px"
	 viewBox="0 0 511.992 511.992" style="enable-background:new 0 0 511.992 511.992;" xml:space="preserve">
<path style="fill:#F26729;" d="M256.003,15.608c-17.498,25.352-31.171,53.524-40.323,83.668h80.632
	C287.178,69.133,273.49,40.96,256.003,15.608z"/>
<g>
	<rect x="406.881" y="403.277" style="fill:#3fb1a2;" width="46.776" height="46.787"/>
	<rect x="58.34" y="403.277" style="fill:#3fb1a2;" width="46.771" height="46.787"/>
</g>
<g>
	<path style="fill:#242D3C;" d="M415.744,442.785l-115.315-21.192V231.163h17.728c0,70.574,39.798,127.995,88.719,127.995h8.868
		V442.785z M318.157,406.82l79.857,14.676v-45.115c-33.306-3.776-62.315-28.631-79.857-64.778V406.82z"/>
	<path style="fill:#242D3C;" d="M96.246,442.785v-83.628h8.863c48.922,0,88.722-57.421,88.722-127.995h17.728v190.431
		L96.246,442.785z M113.974,376.381v45.115l79.859-14.676v-95.214C176.284,347.745,147.279,372.608,113.974,376.381z"/>
	<path style="fill:#242D3C;" d="M318.157,423.068H193.833V186.975c0-63.368,18.975-124.365,54.876-176.399L256.003,0l7.299,10.575
		c35.889,52.032,54.858,113.032,54.858,176.399v236.093H318.157z M211.561,405.34h88.87V186.975
		c0-55.306-15.324-108.692-44.426-155.231c-29.12,46.541-44.442,99.927-44.442,155.231V405.34H211.561z"/>
	<polygon style="fill:#242D3C;" points="298.263,458.934 213.747,458.934 194.66,417.946 210.726,410.468 225.047,441.208 
		286.958,441.208 301.253,410.468 317.327,417.946 	"/>
	<path style="fill:#242D3C;" d="M462.518,458.934h-64.502V356.495c0-8.632,3.361-16.74,9.459-22.825
		c6.07-6.085,14.164-9.444,22.784-9.444c8.63,0,16.732,3.361,22.817,9.459c6.083,6.07,9.441,14.177,9.441,22.81V458.934z
		 M415.744,441.208h29.041v-84.71c0-3.894-1.505-7.542-4.242-10.276c-2.747-2.755-6.395-4.268-10.284-4.268
		c-3.878,0-7.519,1.513-10.25,4.252c-2.755,2.747-4.265,6.395-4.265,10.291V441.208z"/>
	<path style="fill:#242D3C;" d="M113.974,458.934H49.475V356.495c0-8.625,3.346-16.732,9.428-22.817
		c6.1-6.093,14.203-9.452,22.817-9.452c8.617,0,16.717,3.361,22.817,9.452c6.083,6.085,9.436,14.193,9.436,22.817V458.934z
		 M67.203,441.208h29.043v-84.71c0-3.894-1.508-7.542-4.244-10.284c-2.747-2.747-6.4-4.26-10.284-4.26
		c-3.878,0-7.534,1.513-10.281,4.26c-2.732,2.739-4.237,6.387-4.237,10.284v84.71H67.203z"/>
</g>
<path style="fill:#3fb1a2;" d="M281.047,172.8c0,13.832-11.22,25.062-25.055,25.062c-13.842,0-25.068-11.231-25.068-25.062
	c0-13.842,11.226-25.068,25.068-25.068C269.827,147.732,281.047,158.958,281.047,172.8z"/>
<g>
	<path style="fill:#242D3C;" d="M255.995,206.725c-18.706,0-33.93-15.219-33.93-33.925c0-18.708,15.224-33.93,33.93-33.93
		c18.708,0,33.923,15.222,33.923,33.93C289.917,191.506,274.703,206.725,255.995,206.725z M255.995,156.598
		c-8.934,0-16.202,7.265-16.202,16.202c0,8.927,7.268,16.195,16.202,16.195c8.929,0,16.192-7.265,16.192-16.195
		C272.184,163.863,264.922,156.598,255.995,156.598z"/>
	<rect x="263.854" y="471.885" style="fill:#242D3C;" width="17.728" height="40.108"/>
	<rect x="230.42" y="471.885" style="fill:#242D3C;" width="17.728" height="40.108"/>
	<rect x="421.396" y="471.885" style="fill:#242D3C;" width="17.731" height="40.108"/>
	<rect x="72.855" y="471.885" style="fill:#242D3C;" width="17.728" height="40.108"/>
	<rect x="247.137" y="250.803" style="fill:#242D3C;" width="17.728" height="17.725"/>
	<rect x="247.137" y="281.728" style="fill:#242D3C;" width="17.728" height="17.728"/>
	<rect x="247.137" y="312.627" style="fill:#242D3C;" width="17.728" height="17.728"/>
	<rect x="247.137" y="343.526" style="fill:#242D3C;" width="17.728" height="17.728"/>
</g>
<g>
</g>
<g>
</g>
<g>
</g>
<g>
</g>
<g>
</g>
<g>
</g>
<g>
</g>
<g>
</g>
<g>
</g>
<g>
</g>
<g>
</g>
<g>
</g>
<g>
</g>
<g>
</g>
<g>
</g>
</svg>
