<?xml version="1.0" encoding="iso-8859-1"?>
<!-- Generator: Adobe Illustrator 19.0.0, SVG Export Plug-In . SVG Version: 6.00 Build 0)  -->
<svg version="1.1" id="Layer_1" xmlns="http://www.w3.org/2000/svg" xmlns:xlink="http://www.w3.org/1999/xlink" x="0px" y="0px"
	 viewBox="0 0 511.995 511.995" style="enable-background:new 0 0 511.995 511.995;" xml:space="preserve">
<circle style="fill:#CCCBCA;" cx="92.388" cy="341.555" r="7.601"/>
<g>
	<path style="fill:#242D3C;" d="M401.61,322.109c0-7.35,5.962-13.297,13.302-13.297c7.34,0,13.304,5.947,13.304,13.297
		c0,7.345-5.965,13.297-13.304,13.297C407.572,335.406,401.61,329.454,401.61,322.109z"/>
	<path style="fill:#242D3C;" d="M98.478,383.926c0-10.488,8.512-19.003,19.003-19.003c10.493,0,19.008,8.515,19.008,19.003
		c0,10.499-8.517,19.008-19.008,19.008S98.478,394.422,98.478,383.926z"/>
	<path style="fill:#242D3C;" d="M67.031,69.015c0-10.488,8.53-19.003,19.008-19.003c10.504,0,19.003,8.517,19.003,19.003
		c0,10.493-8.499,19.003-19.003,19.003C75.561,88.018,67.031,79.508,67.031,69.015z"/>
</g>
<path style="fill:#CCCBCA;" d="M362.102,43.021c0-5.583,4.521-10.104,10.097-10.104c5.583,0,10.109,4.521,10.109,10.104
	c0,5.571-4.529,10.099-10.109,10.099C366.623,53.12,362.102,48.591,362.102,43.021z"/>
<path style="fill:#242D3C;" d="M249.121,85.993h13.75v12.713h-13.75V85.993z M249.121,111.437h13.75v12.731h-13.75V111.437z
	 M249.121,136.904h13.75v12.721h-13.75V136.904z"/>
<path style="fill:#D9D8D7;" d="M217.807,38.185C217.807,17.091,234.918,0,255.997,0c21.071,0,38.18,17.091,38.18,38.185
	c0,21.079-17.108,38.18-38.18,38.18C234.918,76.365,217.807,59.264,217.807,38.185z"/>
<path style="fill:#242D3C;" d="M335.283,142.326l9.728,9.715l-8.474,8.494l-9.72-9.723L335.283,142.326z M318.341,159.299
	l9.687,9.715l-8.463,8.486l-9.725-9.72L318.341,159.299z"/>
<path style="fill:#D9D8D7;" d="M346.78,102.776c10.422-10.435,27.346-10.435,37.768,0.013c10.47,10.422,10.47,27.351,0,37.796
	c-10.422,10.429-27.346,10.429-37.768,0C336.317,130.138,336.317,113.211,346.78,102.776z"/>
<path style="fill:#242D3C;" d="M176.709,142.326l8.471,8.486l-9.728,9.723l-8.476-8.494L176.709,142.326z M193.651,159.299
	l8.504,8.481l-9.728,9.72l-8.466-8.486L193.651,159.299z"/>
<path style="fill:#D9D8D7;" d="M127.437,140.585c-10.46-10.447-10.46-27.374,0-37.796c10.432-10.447,27.354-10.447,37.77,0
	c10.47,10.435,10.47,27.351,0,37.796C154.79,151.014,137.869,151.014,127.437,140.585z"/>
<path style="fill:#242D3C;" d="M110.636,224.471h12.713v13.75h-12.713V224.471z M136.097,224.471h12.736v13.75h-12.736V224.471z
	 M161.528,224.471h12.744v13.75h-12.744C161.528,238.221,161.528,224.471,161.528,224.471z"/>
<path style="fill:#D9D8D7;" d="M62.82,269.53c-21.071,0-38.172-17.096-38.172-38.18c0-21.089,17.101-38.188,38.172-38.188
	c21.097,0,38.188,17.096,38.188,38.188C101.007,252.434,83.914,269.53,62.82,269.53z"/>
<path style="fill:#242D3C;" d="M337.731,224.476h12.739v13.745h-12.739V224.476z M363.159,224.476h12.746v13.745h-12.746V224.476z
	 M388.646,224.476h12.708v13.745h-12.708V224.476z"/>
<path style="fill:#D9D8D7;" d="M449.157,193.172c21.077,0,38.19,17.091,38.19,38.18c0,21.084-17.114,38.18-38.19,38.18
	c-21.079,0-38.193-17.096-38.193-38.18C410.964,210.26,428.078,193.172,449.157,193.172z"/>
<path style="fill:#F15424;" d="M185.262,231.299c0-39.055,31.588-70.697,70.735-70.697c39.05,0,70.715,31.642,70.715,70.697
	c0,39.083-31.665,70.799-70.715,70.799C216.85,302.098,185.262,270.382,185.262,231.299z"/>
<path style="fill:#242D3C;" d="M226.798,231.316c0-16.115,13.043-29.176,29.199-29.176c16.11,0,29.176,13.061,29.176,29.176
	c0,16.138-13.066,29.233-29.176,29.233C239.841,260.549,226.798,247.455,226.798,231.316z"/>
<g>
	<path style="fill:#E6E5E5;" d="M367.355,306.967c-3.249-3.241-7.493-4.869-11.735-4.869c-4.255,0-8.497,1.631-11.732,4.869
		c-3.256,3.231-4.874,7.48-4.874,11.735v0.01c0-4.265-1.636-8.509-4.869-11.745c-3.231-3.241-7.467-4.869-11.73-4.869
		c-4.247,0-8.499,1.631-11.738,4.869c-3.241,3.236-4.879,7.48-4.879,11.745v-0.018c0-4.255-1.603-8.509-4.849-11.738
		c-3.241-3.231-7.483-4.859-11.727-4.859c-4.255,0-8.502,1.631-11.753,4.859c-3.238,3.228-4.864,7.483-4.864,11.738v-87.342
		c0-4.244-1.626-8.504-4.877-11.74c-3.231-3.236-7.475-4.856-11.727-4.856c-4.25,0-8.497,1.623-11.732,4.856
		c-3.241,3.236-4.864,7.496-4.864,11.74v220.723h33.203H305.8h33.219h33.193V318.702
		C372.206,314.447,370.596,310.198,367.355,306.967z"/>
	<path style="fill:#E6E5E5;" d="M188.964,368.448c-9.172,0-16.596,7.424-16.596,16.594c0,9.16,7.421,16.609,16.596,16.609
		c27.799,0,50.435,22.62,50.435,50.422h33.206C272.604,405.97,235.082,368.448,188.964,368.448z"/>
</g>
<rect x="232.01" y="452.07" style="fill:#242D3C;" width="147.564" height="59.924"/>
<g>
	<rect x="253.181" y="180.941" style="fill:#FFFFFF;" width="5.612" height="13.473"/>
	
		<rect x="275.022" y="186.797" transform="matrix(-0.8656 -0.5007 0.5007 -0.8656 421.4189 500.1663)" style="fill:#FFFFFF;" width="5.614" height="13.468"/>
	
		<rect x="291.015" y="202.789" transform="matrix(-0.5004 -0.8658 0.8658 -0.5004 259.4388 568.7646)" style="fill:#FFFFFF;" width="5.612" height="13.478"/>
	<rect x="292.913" y="228.557" style="fill:#FFFFFF;" width="13.478" height="5.612"/>
	
		<rect x="287.063" y="250.392" transform="matrix(-0.866 -0.5001 0.5001 -0.866 421.6087 619.3887)" style="fill:#FFFFFF;" width="13.481" height="5.612"/>
	
		<rect x="227.405" y="190.716" transform="matrix(-0.4999 -0.8661 0.8661 -0.4999 183.583 493.0499)" style="fill:#FFFFFF;" width="13.476" height="5.612"/>
	
		<rect x="211.433" y="206.686" transform="matrix(-0.866 -0.5 0.5 -0.866 302.3602 500.005)" style="fill:#FFFFFF;" width="13.473" height="5.614"/>
	<rect x="205.591" y="228.531" style="fill:#FFFFFF;" width="13.473" height="5.612"/>
	
		<rect x="215.332" y="246.449" transform="matrix(-0.5005 -0.8658 0.8658 -0.5005 108.1126 568.755)" style="fill:#FFFFFF;" width="5.612" height="13.477"/>
</g>
<path style="fill:#CCCBCA;" d="M247.081,231.345c0-4.918,3.981-8.906,8.909-8.906c4.91,0,8.899,3.988,8.899,8.906
	c0,4.915-3.988,8.911-8.899,8.911C251.062,240.259,247.081,236.262,247.081,231.345z"/>
<g>
</g>
<g>
</g>
<g>
</g>
<g>
</g>
<g>
</g>
<g>
</g>
<g>
</g>
<g>
</g>
<g>
</g>
<g>
</g>
<g>
</g>
<g>
</g>
<g>
</g>
<g>
</g>
<g>
</g>
</svg>
