<?xml version="1.0" encoding="iso-8859-1"?>
<!-- Generator: Adobe Illustrator 19.0.0, SVG Export Plug-In . SVG Version: 6.00 Build 0)  -->
<svg version="1.1" id="Layer_1" xmlns="http://www.w3.org/2000/svg" xmlns:xlink="http://www.w3.org/1999/xlink" x="0px" y="0px"
	 viewBox="0 0 512 512" style="enable-background:new 0 0 512 512;" xml:space="preserve">
<g>
	<polygon style="fill:#3fb1a2;" points="344.687,53.532 255.999,161.966 167.302,53.532 	"/>
	<path style="fill:#3fb1a2;" d="M384.831,84.355l-33.679,142.013l-95.153-64.41l-95.155,64.41L127.164,84.355
		c-54.963,39.91-90.726,104.63-90.726,177.746c0,121.254,98.294,219.574,219.561,219.574c121.265,0,219.564-98.317,219.564-219.574
		C475.562,188.982,439.794,124.265,384.831,84.355z"/>
</g>
<rect x="340.684" y="312.013" style="fill:#242D3C;" width="80" height="19.233"/>
<polygon style="fill:#FFFFFF;" points="380.681,271.992 340.678,312.01 420.684,312.01 "/>
<g>
	<rect x="167.295" y="43.904" style="fill:#242D3C;" width="177.382" height="19.231"/>
	
		<rect x="95.283" y="76.168" transform="matrix(-0.6331 -0.774 0.774 -0.6331 249.921 290.0181)" style="fill:#242D3C;" width="196.812" height="19.23"/>
	<path style="fill:#242D3C;" d="M154.702,242.138L109.943,53.412L123.977,0h264.046l14.034,53.412L357.295,242.14l-101.297-68.572
		L154.702,242.138z M255.999,150.346l89.014,60.247L382.235,53.65l-9.042-34.422H138.81l-9.044,34.424l37.222,156.943
		L255.999,150.346z"/>
	
		<rect x="308.673" y="-12.632" transform="matrix(-0.7741 -0.6331 0.6331 -0.7741 510.3673 353.6919)" style="fill:#242D3C;" width="19.236" height="196.83"/>
	<polygon style="fill:#242D3C;" points="277.626,258.519 234.374,258.519 205.487,193.439 223.064,185.636 246.88,239.288 
		265.12,239.288 288.931,185.636 306.51,193.439 	"/>
	<polygon style="fill:#242D3C;" points="183.438,512 164.804,507.246 233.153,239.288 278.844,239.288 347.194,507.246 328.554,512 
		263.901,258.519 248.096,258.519 	"/>
</g>
<g>
</g>
<g>
</g>
<g>
</g>
<g>
</g>
<g>
</g>
<g>
</g>
<g>
</g>
<g>
</g>
<g>
</g>
<g>
</g>
<g>
</g>
<g>
</g>
<g>
</g>
<g>
</g>
<g>
</g>
</svg>
